<?xml version="1.0" encoding="UTF-8" standalone="no"?>
<!DOCTYPE svg PUBLIC "-//W3C//DTD SVG 1.1//EN" "http://www.w3.org/Graphics/SVG/1.1/DTD/svg11.dtd">
<svg version="1.1" xmlns="http://www.w3.org/2000/svg" xmlns:xlink="http://www.w3.org/1999/xlink" preserveAspectRatio="xMidYMid meet" viewBox="0 0 563 563" width="563" height="563"><defs><path d="M461.5 281.5C461.5 380.84 380.84 461.5 281.5 461.5C182.16 461.5 101.5 380.84 101.5 281.5C101.5 182.16 182.16 101.5 281.5 101.5C380.84 101.5 461.5 182.16 461.5 281.5Z" id="aGxJZ2qxd"></path><path d="M281.5 456.5C184.91 456.5 106.5 378.09 106.5 281.5C106.5 184.91 184.91 106.5 281.5 106.5C378.09 106.5 456.5 184.91 456.5 281.5C456.5 378.09 378.09 456.5 281.5 456.5Z" id="emMEGEbQF"></path><path d="M291.5 163.4L296.4 163.9L301.24 164.59L306.03 165.48L310.74 166.54L315.38 167.79L319.96 169.21L324.45 170.8L328.85 172.58L333.19 174.5L337.41 176.6L341.55 178.85L345.59 181.26L349.54 183.83L353.36 186.51L357.09 189.36L360.69 192.35L364.17 195.45L367.55 198.69L370.8 202.06L373.9 205.56L376.89 209.16L379.73 212.9L382.43 216.73L384.99 220.65L387.39 224.7L389.64 228.84L391.73 233.08L393.66 237.41L395.42 241.81L397.04 246.3L398.45 250.89L399.7 255.53L400.78 260.24L401.65 265.03L402.35 269.88L402.85 274.78L403.14 279.73L403.25 284.75L403.14 289.76L402.85 294.71L402.35 299.61L401.65 304.48L400.78 309.26L399.7 313.96L398.45 318.61L397.04 323.19L395.42 327.69L393.66 332.1L391.73 336.43L389.64 340.65L387.39 344.8L384.99 348.84L382.43 352.76L379.73 356.61L376.89 360.33L373.9 363.94L370.8 367.43L367.55 370.8L364.17 374.05L360.69 377.15L357.09 380.14L353.36 382.98L349.54 385.68L345.59 388.24L341.55 390.64L337.41 392.9L333.19 394.99L328.85 396.93L324.45 398.69L319.96 400.29L315.38 401.71L310.74 402.96L306.03 404.01L301.24 404.91L296.4 405.59L291.5 406.1L286.54 406.4L281.54 406.5L278.5 406.46L275.49 406.35L272.49 406.16L269.52 405.91L266.55 405.58L263.6 405.18L260.65 404.7L257.74 404.16L254.83 403.55L251.95 402.86L249.1 402.1L246.27 401.29L243.45 400.4L240.68 399.44L237.91 398.44L235.19 397.35L232.48 396.19L229.8 394.98L227.16 393.69L224.55 392.35L221.98 390.95L219.43 389.48L216.93 387.95L214.44 386.35L212.02 384.7L209.61 382.99L207.26 381.23L204.94 379.39L202.68 377.51L200.45 375.56L198.27 373.56L196.13 371.51L194.04 369.4L191.99 367.23L189.99 365.01L188.04 362.74L186.16 360.41L184.31 358.04L182.52 355.61L180.8 353.13L187.3 348.71L188.93 351.03L190.59 353.3L192.31 355.53L194.08 357.7L195.9 359.83L197.76 361.9L199.69 363.94L201.63 365.91L203.63 367.83L205.68 369.7L207.76 371.51L209.89 373.29L212.05 374.99L214.26 376.65L216.5 378.25L218.77 379.8L221.08 381.29L223.44 382.71L225.81 384.08L228.23 385.4L230.68 386.66L233.14 387.86L235.64 389L238.18 390.08L240.73 391.1L243.3 392.05L245.91 392.95L248.55 393.78L251.19 394.54L253.88 395.24L256.56 395.89L259.27 396.45L262 396.95L264.75 397.41L267.51 397.79L270.29 398.09L273.08 398.34L275.89 398.51L278.69 398.61L281.54 398.64L282.81 398.64L283.14 398.63L283.79 398.63L284.11 398.61L284.43 398.61L284.75 398.6L285.08 398.6L285.73 398.56L286.03 398.55L286.35 398.53L286.67 398.53L286.99 398.51L287.64 398.48L287.95 398.45L288.6 398.41L288.9 398.4L289.23 398.36L289.55 398.35L289.86 398.34L290.19 398.3L290.49 398.28L290.81 398.25L291.13 398.23L291.45 398.19L291.76 398.18L292.09 398.14L292.39 398.11L292.71 398.08L293.34 398.01L293.66 397.98L293.96 397.95L294.29 397.91L294.2 397.55L294.15 397.39L294.1 397.21L294.06 397.04L294.01 396.86L293.99 396.7L293.94 396.51L293.84 395.98L293.79 395.8L293.76 395.64L293.69 395.29L293.68 395.1L293.58 394.56L293.56 394.39L293.53 394.21L293.5 393.85L293.46 393.68L293.35 392.43L293.35 392.25L293.34 392.06L293.34 391.88L293.31 391.7L293.31 391.51L293.3 391.34L293.3 390.79L293.34 389.66L293.4 388.55L293.51 387.43L293.66 386.34L293.88 385.25L294.1 384.2L294.39 383.14L294.71 382.11L295.08 381.1L295.46 380.1L295.9 379.13L296.38 378.18L296.89 377.23L297.43 376.33L298.01 375.43L298.61 374.56L299.26 373.73L299.93 372.91L300.63 372.11L301.38 371.35L302.11 370.63L302.91 369.93L303.73 369.24L304.56 368.61L305.42 367.99L306.33 367.43L307.23 366.88L308.18 366.38L309.13 365.9L310.1 365.46L311.1 365.05L312.11 364.7L313.14 364.38L314.2 364.1L315.25 363.85L316.34 363.66L317.43 363.5L318.55 363.39L319.66 363.31L320.79 363.3L321.6 363.3L323.18 363.4L323.96 363.48L324.75 363.58L325.51 363.71L326.29 363.85L327.04 364.01L327.8 364.21L328.53 364.43L329.28 364.65L330.01 364.89L331.44 365.46L332.14 365.78L332.81 366.1L333.5 366.44L334.83 367.19L335.48 367.59L336.11 368.01L336.73 368.44L337.35 368.89L337.95 369.36L338.53 369.85L339.1 370.35L339.66 370.86L340.2 371.4L340.74 371.95L341.26 372.51L341.74 373.09L342.23 373.69L342.7 374.29L343.6 375.54L344 376.19L344.4 376.86L344.8 377.53L345.51 378.93L347.74 377.35L349.94 375.74L352.1 374.06L354.21 372.35L356.29 370.58L358.31 368.76L360.3 366.9L362.25 364.99L364.15 363.04L366 361.05L367.8 359L369.55 356.9L371.26 354.78L372.91 352.63L374.5 350.41L376.06 348.15L377.55 345.86L379 343.55L380.4 341.19L381.73 338.79L383.01 336.38L384.23 333.9L385.4 331.4L386.5 328.88L387.54 326.3L388.53 323.73L389.44 321.1L390.3 318.45L391.1 315.78L391.83 313.08L392.49 310.33L393.09 307.59L393.63 304.8L394.08 302L394.49 299.18L394.81 296.33L395.05 293.46L395.25 290.58L395.36 287.68L395.4 284.75L395.3 280.05L395.03 275.41L394.55 270.84L393.9 266.29L393.08 261.83L392.09 257.41L390.91 253.06L389.59 248.79L388.09 244.59L386.44 240.46L384.61 236.4L382.68 232.44L380.56 228.58L378.3 224.8L375.91 221.11L373.4 217.53L370.74 214.04L367.95 210.65L365.04 207.39L362 204.24L358.85 201.21L355.59 198.3L352.21 195.51L348.73 192.85L345.15 190.33L341.46 187.95L337.69 185.69L333.8 183.58L329.85 181.61L325.8 179.81L321.67 178.15L317.48 176.66L313.2 175.33L308.85 174.16L304.44 173.18L299.98 172.35L295.45 171.7L290.85 171.23L286.21 170.95L281.54 170.85L276.84 170.95L272.2 171.23L267.6 171.7L263.08 172.35L258.61 173.18L254.2 174.16L249.85 175.33L245.58 176.66L241.38 178.15L237.25 179.81L233.2 181.61L229.24 183.58L225.36 185.69L221.58 187.95L217.9 190.33L214.33 192.85L210.84 195.51L207.46 198.3L204.2 201.21L201.05 204.24L198.01 207.39L195.1 210.65L192.31 214.04L189.65 217.53L187.14 221.11L184.75 224.8L182.49 228.58L180.38 232.44L178.44 236.4L176.61 240.46L174.96 244.59L173.46 248.79L172.14 253.06L170.96 257.41L169.98 261.83L169.15 266.29L168.5 270.84L168.03 275.41L167.75 280.05L167.65 284.75L167.69 287.15L167.71 288.35L167.75 289.54L167.88 291.94L167.96 293.13L168.06 294.33L168.29 296.7L168.41 297.9L168.56 299.08L168.89 301.45L169.26 303.8L169.48 304.99L169.93 307.33L170.41 309.66L170.69 310.84L170.96 311.99L171.26 313.14L171.88 315.45L172.2 316.6L172.54 317.74L172.9 318.89L173.25 320.03L173.63 321.14L174.01 322.28L174.4 323.4L175.25 325.64L175.68 326.74L176.58 328.95L177.04 330.04L177.52 331.14L178.34 329.73L179.15 328.34L179.98 326.93L180.81 325.51L181.68 324.1L182.55 322.69L183.45 321.26L184.34 319.85L185.25 318.41L186.18 316.99L188.06 314.13L189.04 312.69L189.99 311.26L190.98 309.83L191.98 308.39L192.98 306.95L193.99 305.51L195.02 304.08L196.05 302.64L197.1 301.21L198.15 299.76L199.21 298.34L200.29 296.89L203.55 292.6L204.66 291.18L205.77 289.76L206.89 288.34L208.03 286.93L209.16 285.49L210.3 284.1L212.6 281.28L214.94 278.48L216.11 277.1L217.3 275.7L218.48 274.33L224.44 279.45L221.16 283.3L217.96 287.14L214.85 290.96L211.83 294.76L208.89 298.55L206.03 302.31L203.27 306.05L200.61 309.75L198.03 313.44L195.54 317.06L193.15 320.68L190.86 324.23L188.68 327.75L186.58 331.23L184.59 334.64L182.7 338.01L180.91 341.3L179.23 344.55L177.65 347.74L176.19 350.86L174.85 353.9L173.6 356.89L172.46 359.78L171.45 362.6L170.54 365.35L169.76 367.99L169.08 370.56L168.55 373.04L168.11 375.41L167.81 377.7L167.64 379.88L167.58 381.95L167.65 383.94L167.85 385.8L168.19 387.54L168.64 389.18L169.24 390.69L169.96 392.06L170.84 393.34L171.83 394.48L172.33 394.94L172.86 395.38L173.41 395.8L174 396.19L174.61 396.55L175.25 396.88L175.94 397.19L176.63 397.46L177.36 397.7L178.11 397.91L178.89 398.11L179.7 398.28L180.53 398.4L181.39 398.51L182.28 398.6L183.19 398.64L184.13 398.66L185.09 398.66L186.08 398.63L187.09 398.56L188.13 398.48L189.18 398.36L190.26 398.23L191.38 398.04L192.51 397.85L193.66 397.63L194.85 397.36L196.05 397.09L197.28 396.78L198.51 396.44L199.8 396.08L201.08 395.69L202.39 395.26L203.73 394.81L205.09 394.34L206.45 393.84L207.85 393.31L209.28 392.76L210.7 392.19L212.16 391.56L215.24 398.79L213.45 399.54L212.55 399.89L211.68 400.25L210.8 400.59L208.23 401.56L206.54 402.15L205.7 402.44L204.88 402.71L204.05 402.98L203.24 403.24L201.61 403.71L200.81 403.94L199.26 404.36L197.7 404.75L196.95 404.93L196.19 405.09L195.45 405.25L194.7 405.4L193.96 405.54L193.24 405.68L191.81 405.9L191.1 406L190.4 406.1L189.7 406.18L188.34 406.3L187 406.4L186.34 406.44L185.04 406.46L184.4 406.49L183.84 406.46L183.28 406.46L182.7 406.44L182.15 406.43L181.6 406.38L181.05 406.34L180.51 406.28L179.98 406.23L179.44 406.14L178.93 406.08L178.41 406L177.39 405.8L176.43 405.58L175.45 405.31L174.98 405.18L174.53 405.03L173.61 404.7L173.15 404.53L172.71 404.34L172.3 404.16L171.86 403.95L171.45 403.76L171.03 403.55L170.63 403.31L170.24 403.09L169.83 402.85L169.45 402.6L169.06 402.35L168.69 402.09L168.34 401.83L167.98 401.54L167.63 401.26L167.28 400.96L166.6 400.35L166.27 400.03L165.45 399.15L164.66 398.2L163.95 397.25L163.29 396.24L162.69 395.19L162.15 394.1L161.66 392.98L161.24 391.81L160.86 390.63L160.54 389.39L160.29 388.13L160.08 386.81L159.91 385.48L159.8 384.11L159.75 382.71L159.75 381.29L159.78 379.83L159.88 378.34L160.02 376.83L160.2 375.29L160.45 373.71L160.73 372.1L161.05 370.48L161.43 368.84L161.84 367.15L162.3 365.46L162.8 363.74L163.35 361.99L163.94 360.24L164.55 358.45L165.24 356.65L165.94 354.81L166.68 352.98L167.46 351.11L168.28 349.24L169.13 347.35L170.02 345.45L170.95 343.51L171.9 341.58L172.9 339.64L172.26 338.35L171.65 337.09L171.05 335.79L170.46 334.5L169.88 333.2L169.33 331.89L168.25 329.26L167.25 326.6L166.76 325.26L165.85 322.58L165.41 321.23L164.6 318.5L164.21 317.14L163.84 315.75L163.48 314.38L163.14 312.99L162.81 311.61L162.52 310.21L162.23 308.84L161.95 307.44L161.7 306.03L161.45 304.64L161.23 303.23L161.01 301.81L160.81 300.4L160.64 298.99L160.35 296.16L160.21 294.73L160.1 293.31L159.94 290.46L159.88 289.04L159.81 286.18L159.8 284.75L159.91 279.73L160.2 274.78L160.7 269.88L161.4 265.03L162.28 260.24L163.35 255.53L164.6 250.89L166.01 246.3L167.63 241.81L169.39 237.41L171.33 233.08L173.41 228.84L175.65 224.7L178.06 220.65L180.63 216.73L183.31 212.9L186.16 209.16L189.15 205.56L192.25 202.06L195.49 198.69L198.88 195.45L202.36 192.35L205.96 189.36L209.69 186.51L213.51 183.83L217.46 181.26L221.5 178.85L225.64 176.6L229.86 174.5L234.2 172.58L238.6 170.8L243.09 169.21L247.68 167.79L252.31 166.54L257.02 165.48L261.81 164.59L266.65 163.9L271.55 163.4L276.51 163.09L281.54 162.99L286.54 163.09L291.5 163.4ZM315.58 371.86L313.15 372.7L310.89 373.84L308.8 375.25L306.9 376.9L305.25 378.8L303.84 380.89L302.7 383.15L301.86 385.58L301.34 388.13L301.16 390.79L301.16 391.3L301.23 392.31L301.28 392.81L301.34 393.3L301.4 393.8L301.5 394.31L301.6 394.8L301.83 395.78L302.11 396.74L305.4 396.1L308.63 395.35L311.83 394.53L314.99 393.6L318.13 392.58L321.21 391.46L324.26 390.29L327.26 389.01L330.21 387.68L333.13 386.23L336 384.71L338.8 383.13L337.96 381.39L336.98 379.75L335.84 378.24L334.55 376.84L333.15 375.58L331.65 374.45L330.03 373.48L328.31 372.68L326.54 372.03L324.69 371.55L322.75 371.26L320.79 371.16L318.13 371.34L315.58 371.86Z" id="dNOFK5Hli"></path><path d="M291.5 163.4L296.4 163.9L301.24 164.59L306.03 165.48L310.74 166.54L315.38 167.79L319.96 169.21L324.45 170.8L328.85 172.58L333.19 174.5L337.41 176.6L341.55 178.85L345.59 181.26L349.54 183.83L353.36 186.51L357.09 189.36L360.69 192.35L364.17 195.45L367.55 198.69L370.8 202.06L373.9 205.56L376.89 209.16L379.73 212.9L382.43 216.73L384.99 220.65L387.39 224.7L389.64 228.84L391.73 233.08L393.66 237.41L395.42 241.81L397.04 246.3L398.45 250.89L399.7 255.53L400.78 260.24L401.65 265.03L402.35 269.88L402.85 274.78L403.14 279.73L403.25 284.75L403.14 289.76L402.85 294.71L402.35 299.61L401.65 304.48L400.78 309.26L399.7 313.96L398.45 318.61L397.04 323.19L395.42 327.69L393.66 332.1L391.73 336.43L389.64 340.65L387.39 344.8L384.99 348.84L382.43 352.76L379.73 356.61L376.89 360.33L373.9 363.94L370.8 367.43L367.55 370.8L364.17 374.05L360.69 377.15L357.09 380.14L353.36 382.98L349.54 385.68L345.59 388.24L341.55 390.64L337.41 392.9L333.19 394.99L328.85 396.93L324.45 398.69L319.96 400.29L315.38 401.71L310.74 402.96L306.03 404.01L301.24 404.91L296.4 405.59L291.5 406.1L286.54 406.4L281.54 406.5L278.5 406.46L275.49 406.35L272.49 406.16L269.52 405.91L266.55 405.58L263.6 405.18L260.65 404.7L257.74 404.16L254.83 403.55L251.95 402.86L249.1 402.1L246.27 401.29L243.45 400.4L240.68 399.44L237.91 398.44L235.19 397.35L232.48 396.19L229.8 394.98L227.16 393.69L224.55 392.35L221.98 390.95L219.43 389.48L216.93 387.95L214.44 386.35L212.02 384.7L209.61 382.99L207.26 381.23L204.94 379.39L202.68 377.51L200.45 375.56L198.27 373.56L196.13 371.51L194.04 369.4L191.99 367.23L189.99 365.01L188.04 362.74L186.16 360.41L184.31 358.04L182.52 355.61L180.8 353.13L187.3 348.71L188.93 351.03L190.59 353.3L192.31 355.53L194.08 357.7L195.9 359.83L197.76 361.9L199.69 363.94L201.63 365.91L203.63 367.83L205.68 369.7L207.76 371.51L209.89 373.29L212.05 374.99L214.26 376.65L216.5 378.25L218.77 379.8L221.08 381.29L223.44 382.71L225.81 384.08L228.23 385.4L230.68 386.66L233.14 387.86L235.64 389L238.18 390.08L240.73 391.1L243.3 392.05L245.91 392.95L248.55 393.78L251.19 394.54L253.88 395.24L256.56 395.89L259.27 396.45L262 396.95L264.75 397.41L267.51 397.79L270.29 398.09L273.08 398.34L275.89 398.51L278.69 398.61L281.54 398.64L282.81 398.64L283.14 398.63L283.79 398.63L284.11 398.61L284.43 398.61L284.75 398.6L285.08 398.6L285.73 398.56L286.03 398.55L286.35 398.53L286.67 398.53L286.99 398.51L287.64 398.48L287.95 398.45L288.6 398.41L288.9 398.4L289.23 398.36L289.55 398.35L289.86 398.34L290.19 398.3L290.49 398.28L290.81 398.25L291.13 398.23L291.45 398.19L291.76 398.18L292.09 398.14L292.39 398.11L292.71 398.08L293.34 398.01L293.66 397.98L293.96 397.95L294.29 397.91L294.2 397.55L294.15 397.39L294.1 397.21L294.06 397.04L294.01 396.86L293.99 396.7L293.94 396.51L293.84 395.98L293.79 395.8L293.76 395.64L293.69 395.29L293.68 395.1L293.58 394.56L293.56 394.39L293.53 394.21L293.5 393.85L293.46 393.68L293.35 392.43L293.35 392.25L293.34 392.06L293.34 391.88L293.31 391.7L293.31 391.51L293.3 391.34L293.3 390.79L293.34 389.66L293.4 388.55L293.51 387.43L293.66 386.34L293.88 385.25L294.1 384.2L294.39 383.14L294.71 382.11L295.08 381.1L295.46 380.1L295.9 379.13L296.38 378.18L296.89 377.23L297.43 376.33L298.01 375.43L298.61 374.56L299.26 373.73L299.93 372.91L300.63 372.11L301.38 371.35L302.11 370.63L302.91 369.93L303.73 369.24L304.56 368.61L305.42 367.99L306.33 367.43L307.23 366.88L308.18 366.38L309.13 365.9L310.1 365.46L311.1 365.05L312.11 364.7L313.14 364.38L314.2 364.1L315.25 363.85L316.34 363.66L317.43 363.5L318.55 363.39L319.66 363.31L320.79 363.3L321.6 363.3L323.18 363.4L323.96 363.48L324.75 363.58L325.51 363.71L326.29 363.85L327.04 364.01L327.8 364.21L328.53 364.43L329.28 364.65L330.01 364.89L331.44 365.46L332.14 365.78L332.81 366.1L333.5 366.44L334.83 367.19L335.48 367.59L336.11 368.01L336.73 368.44L337.35 368.89L337.95 369.36L338.53 369.85L339.1 370.35L339.66 370.86L340.2 371.4L340.74 371.95L341.26 372.51L341.74 373.09L342.23 373.69L342.7 374.29L343.6 375.54L344 376.19L344.4 376.86L344.8 377.53L345.51 378.93L347.74 377.35L349.94 375.74L352.1 374.06L354.21 372.35L356.29 370.58L358.31 368.76L360.3 366.9L362.25 364.99L364.15 363.04L366 361.05L367.8 359L369.55 356.9L371.26 354.78L372.91 352.63L374.5 350.41L376.06 348.15L377.55 345.86L379 343.55L380.4 341.19L381.73 338.79L383.01 336.38L384.23 333.9L385.4 331.4L386.5 328.88L387.54 326.3L388.53 323.73L389.44 321.1L390.3 318.45L391.1 315.78L391.83 313.08L392.49 310.33L393.09 307.59L393.63 304.8L394.08 302L394.49 299.18L394.81 296.33L395.05 293.46L395.25 290.58L395.36 287.68L395.4 284.75L395.3 280.05L395.03 275.41L394.55 270.84L393.9 266.29L393.08 261.83L392.09 257.41L390.91 253.06L389.59 248.79L388.09 244.59L386.44 240.46L384.61 236.4L382.68 232.44L380.56 228.58L378.3 224.8L375.91 221.11L373.4 217.53L370.74 214.04L367.95 210.65L365.04 207.39L362 204.24L358.85 201.21L355.59 198.3L352.21 195.51L348.73 192.85L345.15 190.33L341.46 187.95L337.69 185.69L333.8 183.58L329.85 181.61L325.8 179.81L321.67 178.15L317.48 176.66L313.2 175.33L308.85 174.16L304.44 173.18L299.98 172.35L295.45 171.7L290.85 171.23L286.21 170.95L281.54 170.85L276.84 170.95L272.2 171.23L267.6 171.7L263.08 172.35L258.61 173.18L254.2 174.16L249.85 175.33L245.58 176.66L241.38 178.15L237.25 179.81L233.2 181.61L229.24 183.58L225.36 185.69L221.58 187.95L217.9 190.33L214.33 192.85L210.84 195.51L207.46 198.3L204.2 201.21L201.05 204.24L198.01 207.39L195.1 210.65L192.31 214.04L189.65 217.53L187.14 221.11L184.75 224.8L182.49 228.58L180.38 232.44L178.44 236.4L176.61 240.46L174.96 244.59L173.46 248.79L172.14 253.06L170.96 257.41L169.98 261.83L169.15 266.29L168.5 270.84L168.03 275.41L167.75 280.05L167.65 284.75L167.69 287.15L167.71 288.35L167.75 289.54L167.88 291.94L167.96 293.13L168.06 294.33L168.29 296.7L168.41 297.9L168.56 299.08L168.89 301.45L169.26 303.8L169.48 304.99L169.93 307.33L170.41 309.66L170.69 310.84L170.96 311.99L171.26 313.14L171.88 315.45L172.2 316.6L172.54 317.74L172.9 318.89L173.25 320.03L173.63 321.14L174.01 322.28L174.4 323.4L175.25 325.64L175.68 326.74L176.58 328.95L177.04 330.04L177.52 331.14L178.34 329.73L179.15 328.34L179.98 326.93L180.81 325.51L181.68 324.1L182.55 322.69L183.45 321.26L184.34 319.85L185.25 318.41L186.18 316.99L188.06 314.13L189.04 312.69L189.99 311.26L190.98 309.83L191.98 308.39L192.98 306.95L193.99 305.51L195.02 304.08L196.05 302.64L197.1 301.21L198.15 299.76L199.21 298.34L200.29 296.89L203.55 292.6L204.66 291.18L205.77 289.76L206.89 288.34L208.03 286.93L209.16 285.49L210.3 284.1L212.6 281.28L214.94 278.48L216.11 277.1L217.3 275.7L218.48 274.33L224.44 279.45L221.16 283.3L217.96 287.14L214.85 290.96L211.83 294.76L208.89 298.55L206.03 302.31L203.27 306.05L200.61 309.75L198.03 313.44L195.54 317.06L193.15 320.68L190.86 324.23L188.68 327.75L186.58 331.23L184.59 334.64L182.7 338.01L180.91 341.3L179.23 344.55L177.65 347.74L176.19 350.86L174.85 353.9L173.6 356.89L172.46 359.78L171.45 362.6L170.54 365.35L169.76 367.99L169.08 370.56L168.55 373.04L168.11 375.41L167.81 377.7L167.64 379.88L167.58 381.95L167.65 383.94L167.85 385.8L168.19 387.54L168.64 389.18L169.24 390.69L169.96 392.06L170.84 393.34L171.83 394.48L172.33 394.94L172.86 395.38L173.41 395.8L174 396.19L174.61 396.55L175.25 396.88L175.94 397.19L176.63 397.46L177.36 397.7L178.11 397.91L178.89 398.11L179.7 398.28L180.53 398.4L181.39 398.51L182.28 398.6L183.19 398.64L184.13 398.66L185.09 398.66L186.08 398.63L187.09 398.56L188.13 398.48L189.18 398.36L190.26 398.23L191.38 398.04L192.51 397.85L193.66 397.63L194.85 397.36L196.05 397.09L197.28 396.78L198.51 396.44L199.8 396.08L201.08 395.69L202.39 395.26L203.73 394.81L205.09 394.34L206.45 393.84L207.85 393.31L209.28 392.76L210.7 392.19L212.16 391.56L215.24 398.79L213.45 399.54L212.55 399.89L211.68 400.25L210.8 400.59L208.23 401.56L206.54 402.15L205.7 402.44L204.88 402.71L204.05 402.98L203.24 403.24L201.61 403.71L200.81 403.94L199.26 404.36L197.7 404.75L196.95 404.93L196.19 405.09L195.45 405.25L194.7 405.4L193.96 405.54L193.24 405.68L191.81 405.9L191.1 406L190.4 406.1L189.7 406.18L188.34 406.3L187 406.4L186.34 406.44L185.04 406.46L184.4 406.49L183.84 406.46L183.28 406.46L182.7 406.44L182.15 406.43L181.6 406.38L181.05 406.34L180.51 406.28L179.98 406.23L179.44 406.14L178.93 406.08L178.41 406L177.39 405.8L176.43 405.58L175.45 405.31L174.98 405.18L174.53 405.03L173.61 404.7L173.15 404.53L172.71 404.34L172.3 404.16L171.86 403.95L171.45 403.76L171.03 403.55L170.63 403.31L170.24 403.09L169.83 402.85L169.45 402.6L169.06 402.35L168.69 402.09L168.34 401.83L167.98 401.54L167.63 401.26L167.28 400.96L166.6 400.35L166.27 400.03L165.45 399.15L164.66 398.2L163.95 397.25L163.29 396.24L162.69 395.19L162.15 394.1L161.66 392.98L161.24 391.81L160.86 390.63L160.54 389.39L160.29 388.13L160.08 386.81L159.91 385.48L159.8 384.11L159.75 382.71L159.75 381.29L159.78 379.83L159.88 378.34L160.02 376.83L160.2 375.29L160.45 373.71L160.73 372.1L161.05 370.48L161.43 368.84L161.84 367.15L162.3 365.46L162.8 363.74L163.35 361.99L163.94 360.24L164.55 358.45L165.24 356.65L165.94 354.81L166.68 352.98L167.46 351.11L168.28 349.24L169.13 347.35L170.02 345.45L170.95 343.51L171.9 341.58L172.9 339.64L172.26 338.35L171.65 337.09L171.05 335.79L170.46 334.5L169.88 333.2L169.33 331.89L168.25 329.26L167.25 326.6L166.76 325.26L165.85 322.58L165.41 321.23L164.6 318.5L164.21 317.14L163.84 315.75L163.48 314.38L163.14 312.99L162.81 311.61L162.52 310.21L162.23 308.84L161.95 307.44L161.7 306.03L161.45 304.64L161.23 303.23L161.01 301.81L160.81 300.4L160.64 298.99L160.35 296.16L160.21 294.73L160.1 293.31L159.94 290.46L159.88 289.04L159.81 286.18L159.8 284.75L159.91 279.73L160.2 274.78L160.7 269.88L161.4 265.03L162.28 260.24L163.35 255.53L164.6 250.89L166.01 246.3L167.63 241.81L169.39 237.41L171.33 233.08L173.41 228.84L175.65 224.7L178.06 220.65L180.63 216.73L183.31 212.9L186.16 209.16L189.15 205.56L192.25 202.06L195.49 198.69L198.88 195.45L202.36 192.35L205.96 189.36L209.69 186.51L213.51 183.83L217.46 181.26L221.5 178.85L225.64 176.6L229.86 174.5L234.2 172.58L238.6 170.8L243.09 169.21L247.68 167.79L252.31 166.54L257.02 165.48L261.81 164.59L266.65 163.9L271.55 163.4L276.51 163.09L281.54 162.99L286.54 163.09L291.5 163.4ZM315.58 371.86L313.15 372.7L310.89 373.84L308.8 375.25L306.9 376.9L305.25 378.8L303.84 380.89L302.7 383.15L301.86 385.58L301.34 388.13L301.16 390.79L301.16 391.3L301.23 392.31L301.28 392.81L301.34 393.3L301.4 393.8L301.5 394.31L301.6 394.8L301.83 395.78L302.11 396.74L305.4 396.1L308.63 395.35L311.83 394.53L314.99 393.6L318.13 392.58L321.21 391.46L324.26 390.29L327.26 389.01L330.21 387.68L333.13 386.23L336 384.71L338.8 383.13L337.96 381.39L336.98 379.75L335.84 378.24L334.55 376.84L333.15 375.58L331.65 374.45L330.03 373.48L328.31 372.68L326.54 372.03L324.69 371.55L322.75 371.26L320.79 371.16L318.13 371.34L315.58 371.86Z" id="hxXKgiHLd"></path><path d="M291.45 163.4L296.35 163.9L301.19 164.59L305.98 165.48L310.69 166.54L315.33 167.79L319.91 169.21L324.4 170.8L328.8 172.58L333.14 174.5L337.36 176.6L341.5 178.85L345.54 181.26L349.49 183.83L353.31 186.51L357.04 189.36L360.64 192.35L364.13 195.45L367.51 198.69L370.75 202.06L373.85 205.56L376.84 209.16L379.69 212.9L382.38 216.73L384.94 220.65L387.35 224.7L389.59 228.84L391.67 233.08L393.61 237.41L395.38 241.81L396.99 246.3L398.4 250.89L399.65 255.53L400.73 260.24L401.6 265.03L402.3 269.88L402.8 274.78L403.09 279.73L403.2 284.75L403.19 286.18L403.13 289.04L403.06 290.46L402.9 293.31L402.79 294.73L402.65 296.16L402.36 298.99L402.19 300.4L401.99 301.81L401.78 303.23L401.55 304.64L401.3 306.03L401.05 307.44L400.78 308.84L400.48 310.21L400.19 311.61L399.86 312.99L399.53 314.38L399.16 315.75L398.79 317.14L398.4 318.5L397.59 321.23L397.15 322.58L396.24 325.26L395.75 326.6L394.75 329.26L393.68 331.89L393.13 333.2L392.54 334.5L391.95 335.79L391.35 337.09L390.74 338.35L390.1 339.64L391.1 341.58L392.05 343.51L392.98 345.45L393.88 347.35L394.73 349.24L395.54 351.11L396.33 352.98L397.06 354.81L397.76 356.65L398.45 358.45L399.06 360.24L399.65 361.99L400.2 363.74L400.7 365.46L401.16 367.15L401.58 368.84L401.95 370.48L402.28 372.1L402.55 373.71L402.8 375.29L402.98 376.83L403.13 378.34L403.23 379.83L403.25 381.29L403.25 382.71L403.2 384.11L403.09 385.48L402.92 386.81L402.71 388.13L402.46 389.39L402.14 390.63L401.76 391.81L401.34 392.98L400.85 394.1L400.31 395.19L399.71 396.24L399.05 397.25L398.34 398.2L397.55 399.15L396.73 400.03L396.4 400.35L395.73 400.96L395.38 401.26L395.03 401.54L394.66 401.83L394.31 402.09L393.94 402.35L393.55 402.6L393.17 402.85L392.76 403.09L392.38 403.31L391.98 403.55L391.55 403.76L391.14 403.95L390.7 404.16L390.29 404.34L389.85 404.53L389.39 404.7L388.48 405.03L388.03 405.18L387.55 405.31L386.58 405.58L385.61 405.8L385.1 405.9L384.59 406L384.08 406.08L383.56 406.14L383.03 406.23L382.49 406.28L381.95 406.34L381.4 406.38L380.85 406.43L380.3 406.44L379.73 406.46L379.16 406.46L378.6 406.49L377.96 406.46L376.66 406.44L376 406.4L374.66 406.3L373.3 406.18L372.6 406.1L371.9 406L371.19 405.9L369.76 405.68L369.04 405.54L368.3 405.4L367.55 405.25L366.81 405.09L366.05 404.93L365.3 404.75L363.74 404.36L362.19 403.94L361.39 403.71L359.76 403.24L358.95 402.98L358.13 402.71L357.3 402.44L356.46 402.15L354.78 401.56L352.2 400.59L351.33 400.25L350.45 399.89L349.55 399.54L347.76 398.79L350.84 391.56L352.3 392.19L353.73 392.76L355.15 393.31L356.55 393.84L357.91 394.34L359.28 394.81L360.61 395.26L361.92 395.69L363.2 396.08L364.49 396.44L365.73 396.78L366.95 397.09L368.15 397.36L369.34 397.63L370.49 397.85L371.63 398.04L372.74 398.23L373.83 398.36L374.88 398.48L375.91 398.56L376.92 398.63L377.91 398.66L378.88 398.66L379.81 398.64L380.73 398.6L381.61 398.51L382.48 398.4L383.3 398.28L384.11 398.11L384.89 397.91L385.64 397.7L386.38 397.46L387.06 397.19L387.75 396.88L388.39 396.55L389 396.19L389.59 395.8L390.14 395.38L390.67 394.94L391.18 394.48L392.16 393.34L393.04 392.06L393.76 390.69L394.36 389.18L394.81 387.54L395.15 385.8L395.35 383.94L395.42 381.95L395.36 379.88L395.19 377.7L394.89 375.41L394.45 373.04L393.93 370.56L393.24 367.99L392.46 365.35L391.55 362.6L390.54 359.78L389.4 356.89L388.15 353.9L386.81 350.86L385.35 347.74L383.78 344.55L382.09 341.3L380.3 338.01L378.41 334.64L376.43 331.23L374.33 327.75L372.14 324.23L369.85 320.68L367.46 317.06L364.98 313.44L362.39 309.75L359.73 306.05L356.98 302.31L354.11 298.55L351.18 294.76L348.15 290.96L345.04 287.14L341.84 283.3L338.56 279.45L344.53 274.33L345.7 275.7L346.89 277.1L348.06 278.48L350.4 281.28L352.7 284.1L353.84 285.49L354.98 286.93L356.11 288.34L357.23 289.76L358.34 291.18L359.45 292.6L362.71 296.89L363.79 298.34L364.85 299.76L365.9 301.21L366.95 302.64L367.98 304.08L369.01 305.51L370.03 306.95L372.03 309.83L373.01 311.26L373.96 312.69L374.94 314.13L376.83 316.99L377.75 318.41L378.66 319.85L379.55 321.26L380.45 322.69L381.33 324.1L382.19 325.51L383.03 326.93L383.85 328.34L384.66 329.73L385.48 331.14L385.96 330.04L386.43 328.95L387.33 326.74L387.75 325.64L388.6 323.4L388.99 322.28L389.38 321.14L389.75 320.03L390.1 318.89L390.46 317.74L390.8 316.6L391.13 315.45L391.74 313.14L392.04 311.99L392.31 310.84L392.59 309.66L393.08 307.33L393.53 304.99L393.74 303.8L394.11 301.45L394.44 299.08L394.59 297.9L394.71 296.7L394.94 294.33L395.04 293.13L395.13 291.94L395.25 289.54L395.29 288.35L395.31 287.15L395.35 284.75L395.25 280.05L394.98 275.41L394.5 270.84L393.85 266.29L393.03 261.83L392.04 257.41L390.86 253.06L389.54 248.79L388.04 244.59L386.39 240.46L384.56 236.4L382.63 232.44L380.51 228.58L378.25 224.8L375.86 221.11L373.35 217.53L370.69 214.04L367.9 210.65L364.99 207.39L361.95 204.24L358.8 201.21L355.54 198.3L352.16 195.51L348.68 192.85L345.1 190.33L341.43 187.95L337.64 185.69L333.76 183.58L329.8 181.61L325.75 179.81L321.63 178.15L317.43 176.66L313.15 175.33L308.8 174.16L304.39 173.18L299.93 172.35L295.4 171.7L290.8 171.23L286.16 170.95L281.46 170.85L276.79 170.95L272.15 171.23L267.55 171.7L263.02 172.35L258.56 173.18L254.15 174.16L249.8 175.33L245.53 176.66L241.33 178.15L237.2 179.81L233.15 181.61L229.2 183.58L225.31 185.69L221.54 187.95L217.85 190.33L214.28 192.85L210.79 195.51L207.41 198.3L204.15 201.21L201 204.24L197.96 207.39L195.05 210.65L192.26 214.04L189.6 217.53L187.09 221.11L184.7 224.8L182.44 228.58L180.33 232.44L178.39 236.4L176.56 240.46L174.91 244.59L173.41 248.79L172.09 253.06L170.91 257.41L169.93 261.83L169.1 266.29L168.45 270.84L167.98 275.41L167.7 280.05L167.6 284.75L167.64 287.68L167.75 290.58L167.95 293.46L168.19 296.33L168.51 299.18L168.93 302L169.38 304.8L169.91 307.59L170.51 310.33L171.18 313.08L171.9 315.78L172.7 318.45L173.56 321.1L174.48 323.73L175.46 326.3L176.5 328.88L177.6 331.4L178.77 333.9L179.99 336.38L181.27 338.79L182.6 341.19L184 343.55L185.45 345.86L186.94 348.15L188.5 350.41L190.09 352.63L191.74 354.78L193.45 356.9L195.2 359L197 361.05L198.85 363.04L200.75 364.99L202.7 366.9L204.69 368.76L206.71 370.58L208.79 372.35L210.9 374.06L213.06 375.74L215.26 377.35L217.49 378.93L218.2 377.53L218.6 376.86L219 376.19L219.4 375.54L219.85 374.91L220.3 374.29L220.77 373.69L221.26 373.09L221.74 372.51L222.26 371.95L222.8 371.4L223.34 370.86L223.9 370.35L224.48 369.85L225.05 369.36L225.65 368.89L226.27 368.44L226.89 368.01L227.52 367.59L228.18 367.19L229.5 366.44L230.19 366.1L230.86 365.78L231.56 365.46L232.99 364.89L233.73 364.65L234.48 364.43L235.2 364.21L235.96 364.01L236.71 363.85L237.49 363.71L238.25 363.58L239.04 363.48L239.83 363.4L240.61 363.35L241.4 363.3L242.21 363.3L243.34 363.31L244.45 363.39L245.58 363.5L246.66 363.66L247.75 363.85L248.8 364.1L249.86 364.38L250.89 364.7L251.9 365.05L252.9 365.46L253.88 365.9L254.83 366.38L255.77 366.88L256.67 367.43L257.58 367.99L258.44 368.61L259.27 369.24L260.09 369.93L260.89 370.63L261.63 371.35L262.38 372.11L263.08 372.91L263.74 373.73L264.39 374.56L264.99 375.43L265.58 376.33L266.11 377.23L266.63 378.18L267.1 379.13L267.54 380.1L267.92 381.1L268.29 382.11L268.61 383.14L268.9 384.2L269.13 385.25L269.34 386.34L269.49 387.43L269.6 388.55L269.66 389.66L269.7 390.79L269.7 391.34L269.69 391.51L269.69 391.7L269.66 391.88L269.66 392.06L269.65 392.25L269.65 392.43L269.54 393.68L269.5 393.85L269.48 394.21L269.44 394.39L269.43 394.56L269.33 395.1L269.31 395.29L269.24 395.64L269.21 395.8L269.16 395.98L269.06 396.51L269.01 396.7L268.99 396.86L268.94 397.04L268.9 397.21L268.85 397.39L268.8 397.55L268.71 397.91L269.04 397.95L269.34 397.98L269.66 398.01L270.29 398.08L270.61 398.11L270.91 398.14L271.24 398.18L271.55 398.19L271.88 398.23L272.19 398.25L272.51 398.28L272.81 398.3L273.14 398.34L273.45 398.35L273.78 398.36L274.1 398.4L274.4 398.41L275.05 398.45L275.36 398.48L276.01 398.51L276.33 398.53L276.65 398.53L276.98 398.55L277.28 398.56L277.92 398.6L278.25 398.6L278.58 398.61L278.89 398.61L279.21 398.63L279.86 398.63L280.19 398.64L281.46 398.64L284.31 398.61L287.11 398.51L289.93 398.34L292.71 398.09L295.49 397.79L298.25 397.41L301 396.95L303.73 396.45L306.44 395.89L309.13 395.24L311.81 394.54L314.45 393.78L317.09 392.95L319.7 392.05L322.28 391.1L324.83 390.08L327.36 389L329.86 387.86L332.33 386.66L334.78 385.4L337.19 384.08L339.56 382.71L341.93 381.29L344.23 379.8L346.5 378.25L348.74 376.65L350.95 374.99L353.11 373.29L355.24 371.51L357.33 369.7L359.38 367.83L361.38 365.91L363.31 363.94L365.24 361.9L367.1 359.83L368.93 357.7L370.69 355.53L372.41 353.3L374.08 351.03L375.7 348.71L382.2 353.13L380.48 355.61L378.69 358.04L376.84 360.41L374.96 362.74L373.01 365.01L371.01 367.23L368.96 369.4L366.88 371.51L364.73 373.56L362.55 375.56L360.33 377.51L358.06 379.39L355.74 381.23L353.39 382.99L350.98 384.7L348.56 386.35L346.08 387.95L343.58 389.48L341.03 390.95L338.45 392.35L335.84 393.69L333.2 394.98L330.53 396.19L327.81 397.35L325.09 398.44L322.33 399.44L319.55 400.4L316.73 401.29L313.9 402.1L311.05 402.86L308.18 403.55L305.26 404.16L302.35 404.7L299.4 405.18L296.45 405.58L293.48 405.91L290.51 406.16L287.51 406.35L284.5 406.46L281.46 406.5L276.46 406.4L271.5 406.1L266.6 405.59L261.76 404.91L256.98 404.01L252.26 402.96L247.63 401.71L243.04 400.29L238.55 398.69L234.15 396.93L229.81 394.99L225.59 392.9L221.45 390.64L217.41 388.24L213.46 385.68L209.64 382.98L205.91 380.14L202.31 377.15L198.83 374.05L195.45 370.8L192.2 367.43L189.1 363.94L186.11 360.33L183.28 356.61L180.58 352.76L178.01 348.84L175.61 344.8L173.36 340.65L171.27 336.43L169.34 332.1L167.58 327.69L165.96 323.19L164.55 318.61L163.3 313.96L162.23 309.26L161.35 304.48L160.65 299.61L160.15 294.71L159.86 289.76L159.75 284.75L159.86 279.73L160.15 274.78L160.65 269.88L161.35 265.03L162.23 260.24L163.3 255.53L164.55 250.89L165.96 246.3L167.58 241.81L169.34 237.41L171.27 233.08L173.36 228.84L175.61 224.7L178.01 220.65L180.58 216.73L183.28 212.9L186.11 209.16L189.1 205.56L192.2 202.06L195.45 198.69L198.83 195.45L202.31 192.35L205.91 189.36L209.64 186.51L213.46 183.83L217.41 181.26L221.45 178.85L225.59 176.6L229.81 174.5L234.15 172.58L238.55 170.8L243.04 169.21L247.63 167.79L252.26 166.54L256.98 165.48L261.76 164.59L266.6 163.9L271.5 163.4L276.46 163.09L281.46 162.99L286.49 163.09L291.45 163.4ZM238.31 371.55L236.46 372.03L234.69 372.68L232.98 373.48L231.35 374.45L229.85 375.58L228.45 376.84L227.16 378.24L226.03 379.75L225.04 381.39L224.2 383.13L227 384.71L229.88 386.23L232.79 387.68L235.74 389.01L238.74 390.29L241.79 391.46L244.88 392.58L248.01 393.6L251.18 394.53L254.38 395.35L257.6 396.1L260.89 396.74L261.18 395.78L261.4 394.8L261.5 394.31L261.6 393.8L261.66 393.3L261.73 392.81L261.77 392.31L261.84 391.3L261.84 390.79L261.66 388.13L261.14 385.58L260.3 383.15L259.16 380.89L257.75 378.8L256.1 376.9L254.2 375.25L252.11 373.84L249.85 372.7L247.43 371.86L244.88 371.34L242.21 371.16L240.25 371.26L238.31 371.55Z" id="dRGj0IHMv"></path><path d="M291.45 163.4L296.35 163.9L301.19 164.59L305.98 165.48L310.69 166.54L315.33 167.79L319.91 169.21L324.4 170.8L328.8 172.58L333.14 174.5L337.36 176.6L341.5 178.85L345.54 181.26L349.49 183.83L353.31 186.51L357.04 189.36L360.64 192.35L364.13 195.45L367.51 198.69L370.75 202.06L373.85 205.56L376.84 209.16L379.69 212.9L382.38 216.73L384.94 220.65L387.35 224.7L389.59 228.84L391.67 233.08L393.61 237.41L395.38 241.81L396.99 246.3L398.4 250.89L399.65 255.53L400.73 260.24L401.6 265.03L402.3 269.88L402.8 274.78L403.09 279.73L403.2 284.75L403.19 286.18L403.13 289.04L403.06 290.46L402.9 293.31L402.79 294.73L402.65 296.16L402.36 298.99L402.19 300.4L401.99 301.81L401.78 303.23L401.55 304.64L401.3 306.03L401.05 307.44L400.78 308.84L400.48 310.21L400.19 311.61L399.86 312.99L399.53 314.38L399.16 315.75L398.79 317.14L398.4 318.5L397.59 321.23L397.15 322.58L396.24 325.26L395.75 326.6L394.75 329.26L393.68 331.89L393.13 333.2L392.54 334.5L391.95 335.79L391.35 337.09L390.74 338.35L390.1 339.64L391.1 341.58L392.05 343.51L392.98 345.45L393.88 347.35L394.73 349.24L395.54 351.11L396.33 352.98L397.06 354.81L397.76 356.65L398.45 358.45L399.06 360.24L399.65 361.99L400.2 363.74L400.7 365.46L401.16 367.15L401.58 368.84L401.95 370.48L402.28 372.1L402.55 373.71L402.8 375.29L402.98 376.83L403.13 378.34L403.23 379.83L403.25 381.29L403.25 382.71L403.2 384.11L403.09 385.48L402.92 386.81L402.71 388.13L402.46 389.39L402.14 390.63L401.76 391.81L401.34 392.98L400.85 394.1L400.31 395.19L399.71 396.24L399.05 397.25L398.34 398.2L397.55 399.15L396.73 400.03L396.4 400.35L395.73 400.96L395.38 401.26L395.03 401.54L394.66 401.83L394.31 402.09L393.94 402.35L393.55 402.6L393.17 402.85L392.76 403.09L392.38 403.31L391.98 403.55L391.55 403.76L391.14 403.95L390.7 404.16L390.29 404.34L389.85 404.53L389.39 404.7L388.48 405.03L388.03 405.18L387.55 405.31L386.58 405.58L385.61 405.8L385.1 405.9L384.59 406L384.08 406.08L383.56 406.14L383.03 406.23L382.49 406.28L381.95 406.34L381.4 406.38L380.85 406.43L380.3 406.44L379.73 406.46L379.16 406.46L378.6 406.49L377.96 406.46L376.66 406.44L376 406.4L374.66 406.3L373.3 406.18L372.6 406.1L371.9 406L371.19 405.9L369.76 405.68L369.04 405.54L368.3 405.4L367.55 405.25L366.81 405.09L366.05 404.93L365.3 404.75L363.74 404.36L362.19 403.94L361.39 403.71L359.76 403.24L358.95 402.98L358.13 402.71L357.3 402.44L356.46 402.15L354.78 401.56L352.2 400.59L351.33 400.25L350.45 399.89L349.55 399.54L347.76 398.79L350.84 391.56L352.3 392.19L353.73 392.76L355.15 393.31L356.55 393.84L357.91 394.34L359.28 394.81L360.61 395.26L361.92 395.69L363.2 396.08L364.49 396.44L365.73 396.78L366.95 397.09L368.15 397.36L369.34 397.63L370.49 397.85L371.63 398.04L372.74 398.23L373.83 398.36L374.88 398.48L375.91 398.56L376.92 398.63L377.91 398.66L378.88 398.66L379.81 398.64L380.73 398.6L381.61 398.51L382.48 398.4L383.3 398.28L384.11 398.11L384.89 397.91L385.64 397.7L386.38 397.46L387.06 397.19L387.75 396.88L388.39 396.55L389 396.19L389.59 395.8L390.14 395.38L390.67 394.94L391.18 394.48L392.16 393.34L393.04 392.06L393.76 390.69L394.36 389.18L394.81 387.54L395.15 385.8L395.35 383.94L395.42 381.95L395.36 379.88L395.19 377.7L394.89 375.41L394.45 373.04L393.93 370.56L393.24 367.99L392.46 365.35L391.55 362.6L390.54 359.78L389.4 356.89L388.15 353.9L386.81 350.86L385.35 347.74L383.78 344.55L382.09 341.3L380.3 338.01L378.41 334.64L376.43 331.23L374.33 327.75L372.14 324.23L369.85 320.68L367.46 317.06L364.98 313.44L362.39 309.75L359.73 306.05L356.98 302.31L354.11 298.55L351.18 294.76L348.15 290.96L345.04 287.14L341.84 283.3L338.56 279.45L344.53 274.33L345.7 275.7L346.89 277.1L348.06 278.48L350.4 281.28L352.7 284.1L353.84 285.49L354.98 286.93L356.11 288.34L357.23 289.76L358.34 291.18L359.45 292.6L362.71 296.89L363.79 298.34L364.85 299.76L365.9 301.21L366.95 302.64L367.98 304.08L369.01 305.51L370.03 306.95L372.03 309.83L373.01 311.26L373.96 312.69L374.94 314.13L376.83 316.99L377.75 318.41L378.66 319.85L379.55 321.26L380.45 322.69L381.33 324.1L382.19 325.51L383.03 326.93L383.85 328.34L384.66 329.73L385.48 331.14L385.96 330.04L386.43 328.95L387.33 326.74L387.75 325.64L388.6 323.4L388.99 322.28L389.38 321.14L389.75 320.03L390.1 318.89L390.46 317.74L390.8 316.6L391.13 315.45L391.74 313.14L392.04 311.99L392.31 310.84L392.59 309.66L393.08 307.33L393.53 304.99L393.74 303.8L394.11 301.45L394.44 299.08L394.59 297.9L394.71 296.7L394.94 294.33L395.04 293.13L395.13 291.94L395.25 289.54L395.29 288.35L395.31 287.15L395.35 284.75L395.25 280.05L394.98 275.41L394.5 270.84L393.85 266.29L393.03 261.83L392.04 257.41L390.86 253.06L389.54 248.79L388.04 244.59L386.39 240.46L384.56 236.4L382.63 232.44L380.51 228.58L378.25 224.8L375.86 221.11L373.35 217.53L370.69 214.04L367.9 210.65L364.99 207.39L361.95 204.24L358.8 201.21L355.54 198.3L352.16 195.51L348.68 192.85L345.1 190.33L341.43 187.95L337.64 185.69L333.76 183.58L329.8 181.61L325.75 179.81L321.63 178.15L317.43 176.66L313.15 175.33L308.8 174.16L304.39 173.18L299.93 172.35L295.4 171.7L290.8 171.23L286.16 170.95L281.46 170.85L276.79 170.95L272.15 171.23L267.55 171.7L263.02 172.35L258.56 173.18L254.15 174.16L249.8 175.33L245.53 176.66L241.33 178.15L237.2 179.81L233.15 181.61L229.2 183.58L225.31 185.69L221.54 187.95L217.85 190.33L214.28 192.85L210.79 195.51L207.41 198.3L204.15 201.21L201 204.24L197.96 207.39L195.05 210.65L192.26 214.04L189.6 217.53L187.09 221.11L184.7 224.8L182.44 228.58L180.33 232.44L178.39 236.4L176.56 240.46L174.91 244.59L173.41 248.79L172.09 253.06L170.91 257.41L169.93 261.83L169.1 266.29L168.45 270.84L167.98 275.41L167.7 280.05L167.6 284.75L167.64 287.68L167.75 290.58L167.95 293.46L168.19 296.33L168.51 299.18L168.93 302L169.38 304.8L169.91 307.59L170.51 310.33L171.18 313.08L171.9 315.78L172.7 318.45L173.56 321.1L174.48 323.73L175.46 326.3L176.5 328.88L177.6 331.4L178.77 333.9L179.99 336.38L181.27 338.79L182.6 341.19L184 343.55L185.45 345.86L186.94 348.15L188.5 350.41L190.09 352.63L191.74 354.78L193.45 356.9L195.2 359L197 361.05L198.85 363.04L200.75 364.99L202.7 366.9L204.69 368.76L206.71 370.58L208.79 372.35L210.9 374.06L213.06 375.74L215.26 377.35L217.49 378.93L218.2 377.53L218.6 376.86L219 376.19L219.4 375.54L219.85 374.91L220.3 374.29L220.77 373.69L221.26 373.09L221.74 372.51L222.26 371.95L222.8 371.4L223.34 370.86L223.9 370.35L224.48 369.85L225.05 369.36L225.65 368.89L226.27 368.44L226.89 368.01L227.52 367.59L228.18 367.19L229.5 366.44L230.19 366.1L230.86 365.78L231.56 365.46L232.99 364.89L233.73 364.65L234.48 364.43L235.2 364.21L235.96 364.01L236.71 363.85L237.49 363.71L238.25 363.58L239.04 363.48L239.83 363.4L240.61 363.35L241.4 363.3L242.21 363.3L243.34 363.31L244.45 363.39L245.58 363.5L246.66 363.66L247.75 363.85L248.8 364.1L249.86 364.38L250.89 364.7L251.9 365.05L252.9 365.46L253.88 365.9L254.83 366.38L255.77 366.88L256.67 367.43L257.58 367.99L258.44 368.61L259.27 369.24L260.09 369.93L260.89 370.63L261.63 371.35L262.38 372.11L263.08 372.91L263.74 373.73L264.39 374.56L264.99 375.43L265.58 376.33L266.11 377.23L266.63 378.18L267.1 379.13L267.54 380.1L267.92 381.1L268.29 382.11L268.61 383.14L268.9 384.2L269.13 385.25L269.34 386.34L269.49 387.43L269.6 388.55L269.66 389.66L269.7 390.79L269.7 391.34L269.69 391.51L269.69 391.7L269.66 391.88L269.66 392.06L269.65 392.25L269.65 392.43L269.54 393.68L269.5 393.85L269.48 394.21L269.44 394.39L269.43 394.56L269.33 395.1L269.31 395.29L269.24 395.64L269.21 395.8L269.16 395.98L269.06 396.51L269.01 396.7L268.99 396.86L268.94 397.04L268.9 397.21L268.85 397.39L268.8 397.55L268.71 397.91L269.04 397.95L269.34 397.98L269.66 398.01L270.29 398.08L270.61 398.11L270.91 398.14L271.24 398.18L271.55 398.19L271.88 398.23L272.19 398.25L272.51 398.28L272.81 398.3L273.14 398.34L273.45 398.35L273.78 398.36L274.1 398.4L274.4 398.41L275.05 398.45L275.36 398.48L276.01 398.51L276.33 398.53L276.65 398.53L276.98 398.55L277.28 398.56L277.92 398.6L278.25 398.6L278.58 398.61L278.89 398.61L279.21 398.63L279.86 398.63L280.19 398.64L281.46 398.64L284.31 398.61L287.11 398.51L289.93 398.34L292.71 398.09L295.49 397.79L298.25 397.41L301 396.95L303.73 396.45L306.44 395.89L309.13 395.24L311.81 394.54L314.45 393.78L317.09 392.95L319.7 392.05L322.28 391.1L324.83 390.08L327.36 389L329.86 387.86L332.33 386.66L334.78 385.4L337.19 384.08L339.56 382.71L341.93 381.29L344.23 379.8L346.5 378.25L348.74 376.65L350.95 374.99L353.11 373.29L355.24 371.51L357.33 369.7L359.38 367.83L361.38 365.91L363.31 363.94L365.24 361.9L367.1 359.83L368.93 357.7L370.69 355.53L372.41 353.3L374.08 351.03L375.7 348.71L382.2 353.13L380.48 355.61L378.69 358.04L376.84 360.41L374.96 362.74L373.01 365.01L371.01 367.23L368.96 369.4L366.88 371.51L364.73 373.56L362.55 375.56L360.33 377.51L358.06 379.39L355.74 381.23L353.39 382.99L350.98 384.7L348.56 386.35L346.08 387.95L343.58 389.48L341.03 390.95L338.45 392.35L335.84 393.69L333.2 394.98L330.53 396.19L327.81 397.35L325.09 398.44L322.33 399.44L319.55 400.4L316.73 401.29L313.9 402.1L311.05 402.86L308.18 403.55L305.26 404.16L302.35 404.7L299.4 405.18L296.45 405.58L293.48 405.91L290.51 406.16L287.51 406.35L284.5 406.46L281.46 406.5L276.46 406.4L271.5 406.1L266.6 405.59L261.76 404.91L256.98 404.01L252.26 402.96L247.63 401.71L243.04 400.29L238.55 398.69L234.15 396.93L229.81 394.99L225.59 392.9L221.45 390.64L217.41 388.24L213.46 385.68L209.64 382.98L205.91 380.14L202.31 377.15L198.83 374.05L195.45 370.8L192.2 367.43L189.1 363.94L186.11 360.33L183.28 356.61L180.58 352.76L178.01 348.84L175.61 344.8L173.36 340.65L171.27 336.43L169.34 332.1L167.58 327.69L165.96 323.19L164.55 318.61L163.3 313.96L162.23 309.26L161.35 304.48L160.65 299.61L160.15 294.71L159.86 289.76L159.75 284.75L159.86 279.73L160.15 274.78L160.65 269.88L161.35 265.03L162.23 260.24L163.3 255.53L164.55 250.89L165.96 246.3L167.58 241.81L169.34 237.41L171.27 233.08L173.36 228.84L175.61 224.7L178.01 220.65L180.58 216.73L183.28 212.9L186.11 209.16L189.1 205.56L192.2 202.06L195.45 198.69L198.83 195.45L202.31 192.35L205.91 189.36L209.64 186.51L213.46 183.83L217.41 181.26L221.45 178.85L225.59 176.6L229.81 174.5L234.15 172.58L238.55 170.8L243.04 169.21L247.63 167.79L252.26 166.54L256.98 165.48L261.76 164.59L266.6 163.9L271.5 163.4L276.46 163.09L281.46 162.99L286.49 163.09L291.45 163.4ZM238.31 371.55L236.46 372.03L234.69 372.68L232.98 373.48L231.35 374.45L229.85 375.58L228.45 376.84L227.16 378.24L226.03 379.75L225.04 381.39L224.2 383.13L227 384.71L229.88 386.23L232.79 387.68L235.74 389.01L238.74 390.29L241.79 391.46L244.88 392.58L248.01 393.6L251.18 394.53L254.38 395.35L257.6 396.1L260.89 396.74L261.18 395.78L261.4 394.8L261.5 394.31L261.6 393.8L261.66 393.3L261.73 392.81L261.77 392.31L261.84 391.3L261.84 390.79L261.66 388.13L261.14 385.58L260.3 383.15L259.16 380.89L257.75 378.8L256.1 376.9L254.2 375.25L252.11 373.84L249.85 372.7L247.43 371.86L244.88 371.34L242.21 371.16L240.25 371.26L238.31 371.55Z" id="g30mGsHTtJ"></path><path d="M309.01 207.81L309.01 219.6L277.6 251.03L277.6 290.3L261.89 306.01L247.35 291.45L252.9 285.9L261.89 294.91L269.75 287.05L269.75 258.89L242.26 286.38L213.15 257.25L240.64 229.76L212.48 229.76L204.61 237.63L213.63 246.63L208.08 252.19L193.51 237.63L209.23 221.9L248.48 221.9L279.89 190.49L291.67 190.49L299.54 182.64L316.86 182.64L316.86 199.98L309.01 207.81ZM242.26 275.26L283.83 233.69L265.81 215.68L224.26 257.25L242.26 275.26ZM271.38 210.13L289.38 228.14L301.16 216.35L301.16 207.81L291.67 198.34L283.15 198.34L271.38 210.13ZM298.85 194.4L305.09 200.64L309.01 196.71L309.01 190.49L302.79 190.49L298.85 194.4Z" id="c1B2m7ABJu"></path><path d="M309.01 207.81L309.01 219.6L277.6 251.03L277.6 290.3L261.89 306.01L247.35 291.45L252.9 285.9L261.89 294.91L269.75 287.05L269.75 258.89L242.26 286.38L213.15 257.25L240.64 229.76L212.48 229.76L204.61 237.63L213.63 246.63L208.08 252.19L193.51 237.63L209.23 221.9L248.48 221.9L279.89 190.49L291.67 190.49L299.54 182.64L316.86 182.64L316.86 199.98L309.01 207.81ZM242.26 275.26L283.83 233.69L265.81 215.68L224.26 257.25L242.26 275.26ZM271.38 210.13L289.38 228.14L301.16 216.35L301.16 207.81L291.67 198.34L283.15 198.34L271.38 210.13ZM298.85 194.4L305.09 200.64L309.01 196.71L309.01 190.49L302.79 190.49L298.85 194.4Z" id="a1CpPnuBKy"></path><path d="M309.01 207.81L309.01 219.6L277.6 251.03L277.6 290.3L261.89 306.01L247.35 291.45L252.9 285.9L261.89 294.91L269.75 287.05L269.75 258.89L242.26 286.38L213.15 257.25L240.64 229.76L212.48 229.76L204.61 237.63L213.63 246.63L208.08 252.19L193.51 237.63L209.23 221.9L248.48 221.9L279.89 190.49L291.67 190.49L299.54 182.64L316.86 182.64L316.86 199.98L309.01 207.81ZM242.26 275.26L283.83 233.69L265.81 215.68L224.26 257.25L242.26 275.26ZM271.38 210.13L289.38 228.14L301.16 216.35L301.16 207.81L291.67 198.34L283.15 198.34L271.38 210.13ZM298.85 194.4L305.09 200.64L309.01 196.71L309.01 190.49L302.79 190.49L298.85 194.4Z" id="eBzCOEYpX"></path><path d="M309.01 207.81L309.01 219.6L277.6 251.03L277.6 290.3L261.89 306.01L247.35 291.45L252.9 285.9L261.89 294.91L269.75 287.05L269.75 258.89L242.26 286.38L213.15 257.25L240.64 229.76L212.48 229.76L204.61 237.63L213.63 246.63L208.08 252.19L193.51 237.63L209.23 221.9L248.48 221.9L279.89 190.49L291.67 190.49L299.54 182.64L316.86 182.64L316.86 199.98L309.01 207.81ZM242.26 275.26L283.83 233.69L265.81 215.68L224.26 257.25L242.26 275.26ZM271.38 210.13L289.38 228.14L301.16 216.35L301.16 207.81L291.67 198.34L283.15 198.34L271.38 210.13ZM298.85 194.4L305.09 200.64L309.01 196.71L309.01 190.49L302.79 190.49L298.85 194.4Z" id="c79XkIPaq0"></path><path d="M364.29 245.85L366.3 246.33L368.28 246.95L370.15 247.75L371.94 248.69L373.63 249.8L375.24 251.01L376.71 252.38L378.08 253.85L379.29 255.46L380.4 257.15L381.34 258.94L382.14 260.81L382.76 262.79L383.24 264.81L383.51 266.89L383.61 269.04L383.51 271.18L383.24 273.28L382.76 275.3L382.14 277.25L381.34 279.13L380.4 280.91L379.29 282.63L378.08 284.21L376.71 285.69L375.24 287.05L373.63 288.29L371.94 289.38L370.15 290.33L368.28 291.13L366.3 291.76L364.29 292.21L362.2 292.51L360.05 292.6L357.91 292.51L355.81 292.21L353.8 291.76L351.84 291.13L349.96 290.33L348.18 289.38L346.49 288.29L344.88 287.05L343.4 285.69L342.04 284.21L340.81 282.63L339.71 280.91L338.78 279.13L337.98 277.25L337.35 275.3L336.88 273.28L336.6 271.18L336.5 269.04L336.6 266.89L336.88 264.81L337.35 262.79L337.98 260.81L338.78 258.94L339.71 257.15L340.81 255.46L342.04 253.85L343.4 252.38L344.88 251.01L346.49 249.8L348.18 248.69L349.96 247.75L351.84 246.95L353.8 246.33L355.81 245.85L357.91 245.58L360.05 245.48L362.2 245.58L364.29 245.85ZM355.89 253.89L353.95 254.56L352.14 255.48L350.46 256.6L348.95 257.93L347.63 259.44L346.5 261.11L345.59 262.93L344.91 264.86L344.49 266.9L344.34 269.04L344.49 271.16L344.91 273.2L345.59 275.15L346.5 276.95L347.63 278.63L348.95 280.14L350.46 281.46L352.14 282.6L353.95 283.51L355.89 284.18L357.92 284.6L360.05 284.75L362.19 284.6L364.23 284.18L366.16 283.51L367.98 282.6L369.65 281.46L371.16 280.14L372.49 278.63L373.61 276.95L374.53 275.15L375.2 273.2L375.63 271.16L375.75 269.04L375.63 266.9L375.2 264.86L374.53 262.93L373.61 261.11L372.49 259.44L371.16 257.93L369.65 256.6L367.98 255.48L366.16 254.56L364.23 253.89L362.19 253.46L360.05 253.34L357.92 253.46L355.89 253.89Z" id="a3p20oU8j"></path><path d="M364.29 245.85L366.3 246.33L368.28 246.95L370.15 247.75L371.94 248.69L373.63 249.8L375.24 251.01L376.71 252.38L378.08 253.85L379.29 255.46L380.4 257.15L381.34 258.94L382.14 260.81L382.76 262.79L383.24 264.81L383.51 266.89L383.61 269.04L383.51 271.18L383.24 273.28L382.76 275.3L382.14 277.25L381.34 279.13L380.4 280.91L379.29 282.63L378.08 284.21L376.71 285.69L375.24 287.05L373.63 288.29L371.94 289.38L370.15 290.33L368.28 291.13L366.3 291.76L364.29 292.21L362.2 292.51L360.05 292.6L357.91 292.51L355.81 292.21L353.8 291.76L351.84 291.13L349.96 290.33L348.18 289.38L346.49 288.29L344.88 287.05L343.4 285.69L342.04 284.21L340.81 282.63L339.71 280.91L338.78 279.13L337.98 277.25L337.35 275.3L336.88 273.28L336.6 271.18L336.5 269.04L336.6 266.89L336.88 264.81L337.35 262.79L337.98 260.81L338.78 258.94L339.71 257.15L340.81 255.46L342.04 253.85L343.4 252.38L344.88 251.01L346.49 249.8L348.18 248.69L349.96 247.75L351.84 246.95L353.8 246.33L355.81 245.85L357.91 245.58L360.05 245.48L362.2 245.58L364.29 245.85ZM355.89 253.89L353.95 254.56L352.14 255.48L350.46 256.6L348.95 257.93L347.63 259.44L346.5 261.11L345.59 262.93L344.91 264.86L344.49 266.9L344.34 269.04L344.49 271.16L344.91 273.2L345.59 275.15L346.5 276.95L347.63 278.63L348.95 280.14L350.46 281.46L352.14 282.6L353.95 283.51L355.89 284.18L357.92 284.6L360.05 284.75L362.19 284.6L364.23 284.18L366.16 283.51L367.98 282.6L369.65 281.46L371.16 280.14L372.49 278.63L373.61 276.95L374.53 275.15L375.2 273.2L375.63 271.16L375.75 269.04L375.63 266.9L375.2 264.86L374.53 262.93L373.61 261.11L372.49 259.44L371.16 257.93L369.65 256.6L367.98 255.48L366.16 254.56L364.23 253.89L362.19 253.46L360.05 253.34L357.92 253.46L355.89 253.89Z" id="abxffDzz7"></path><path d="M364.29 245.85L366.3 246.33L368.28 246.95L370.15 247.75L371.94 248.69L373.63 249.8L375.24 251.01L376.71 252.38L378.08 253.85L379.29 255.46L380.4 257.15L381.34 258.94L382.14 260.81L382.76 262.79L383.24 264.81L383.51 266.89L383.61 269.04L383.51 271.18L383.24 273.28L382.76 275.3L382.14 277.25L381.34 279.13L380.4 280.91L379.29 282.63L378.08 284.21L376.71 285.69L375.24 287.05L373.63 288.29L371.94 289.38L370.15 290.33L368.28 291.13L366.3 291.76L364.29 292.21L362.2 292.51L360.05 292.6L357.91 292.51L355.81 292.21L353.8 291.76L351.84 291.13L349.96 290.33L348.18 289.38L346.49 288.29L344.88 287.05L343.4 285.69L342.04 284.21L340.81 282.63L339.71 280.91L338.78 279.13L337.98 277.25L337.35 275.3L336.88 273.28L336.6 271.18L336.5 269.04L336.6 266.89L336.88 264.81L337.35 262.79L337.98 260.81L338.78 258.94L339.71 257.15L340.81 255.46L342.04 253.85L343.4 252.38L344.88 251.01L346.49 249.8L348.18 248.69L349.96 247.75L351.84 246.95L353.8 246.33L355.81 245.85L357.91 245.58L360.05 245.48L362.2 245.58L364.29 245.85ZM355.89 253.89L353.95 254.56L352.14 255.48L350.46 256.6L348.95 257.93L347.63 259.44L346.5 261.11L345.59 262.93L344.91 264.86L344.49 266.9L344.34 269.04L344.49 271.16L344.91 273.2L345.59 275.15L346.5 276.95L347.63 278.63L348.95 280.14L350.46 281.46L352.14 282.6L353.95 283.51L355.89 284.18L357.92 284.6L360.05 284.75L362.19 284.6L364.23 284.18L366.16 283.51L367.98 282.6L369.65 281.46L371.16 280.14L372.49 278.63L373.61 276.95L374.53 275.15L375.2 273.2L375.63 271.16L375.75 269.04L375.63 266.9L375.2 264.86L374.53 262.93L373.61 261.11L372.49 259.44L371.16 257.93L369.65 256.6L367.98 255.48L366.16 254.56L364.23 253.89L362.19 253.46L360.05 253.34L357.92 253.46L355.89 253.89Z" id="a1eBFqny6Y"></path><path d="M364.29 245.85L366.3 246.33L368.28 246.95L370.15 247.75L371.94 248.69L373.63 249.8L375.24 251.01L376.71 252.38L378.08 253.85L379.29 255.46L380.4 257.15L381.34 258.94L382.14 260.81L382.76 262.79L383.24 264.81L383.51 266.89L383.61 269.04L383.51 271.18L383.24 273.28L382.76 275.3L382.14 277.25L381.34 279.13L380.4 280.91L379.29 282.63L378.08 284.21L376.71 285.69L375.24 287.05L373.63 288.29L371.94 289.38L370.15 290.33L368.28 291.13L366.3 291.76L364.29 292.21L362.2 292.51L360.05 292.6L357.91 292.51L355.81 292.21L353.8 291.76L351.84 291.13L349.96 290.33L348.18 289.38L346.49 288.29L344.88 287.05L343.4 285.69L342.04 284.21L340.81 282.63L339.71 280.91L338.78 279.13L337.98 277.25L337.35 275.3L336.88 273.28L336.6 271.18L336.5 269.04L336.6 266.89L336.88 264.81L337.35 262.79L337.98 260.81L338.78 258.94L339.71 257.15L340.81 255.46L342.04 253.85L343.4 252.38L344.88 251.01L346.49 249.8L348.18 248.69L349.96 247.75L351.84 246.95L353.8 246.33L355.81 245.85L357.91 245.58L360.05 245.48L362.2 245.58L364.29 245.85ZM355.89 253.89L353.95 254.56L352.14 255.48L350.46 256.6L348.95 257.93L347.63 259.44L346.5 261.11L345.59 262.93L344.91 264.86L344.49 266.9L344.34 269.04L344.49 271.16L344.91 273.2L345.59 275.15L346.5 276.95L347.63 278.63L348.95 280.14L350.46 281.46L352.14 282.6L353.95 283.51L355.89 284.18L357.92 284.6L360.05 284.75L362.19 284.6L364.23 284.18L366.16 283.51L367.98 282.6L369.65 281.46L371.16 280.14L372.49 278.63L373.61 276.95L374.53 275.15L375.2 273.2L375.63 271.16L375.75 269.04L375.63 266.9L375.2 264.86L374.53 262.93L373.61 261.11L372.49 259.44L371.16 257.93L369.65 256.6L367.98 255.48L366.16 254.56L364.23 253.89L362.19 253.46L360.05 253.34L357.92 253.46L355.89 253.89Z" id="c2ub8aBcnY"></path><path d="M230.65 320.84L232.49 321.71L234.13 322.86L235.56 324.29L236.73 325.94L237.59 327.76L238.14 329.76L238.34 331.88L238.14 334L237.59 335.98L236.73 337.81L235.56 339.48L234.13 340.89L232.49 342.05L230.65 342.93L228.68 343.46L226.55 343.66L224.44 343.46L222.44 342.93L220.61 342.05L218.96 340.89L217.55 339.48L216.39 337.81L215.51 335.98L214.96 334L214.78 331.88L214.96 329.76L215.51 327.76L216.39 325.94L217.55 324.29L218.96 322.86L220.61 321.71L222.44 320.84L224.44 320.29L226.55 320.09L228.68 320.29L230.65 320.84ZM223.77 329.1L222.93 330.35L222.63 331.88L222.93 333.4L223.77 334.65L225.02 335.49L226.55 335.8L228.08 335.49L229.33 334.65L230.18 333.4L230.48 331.88L230.18 330.35L229.33 329.1L228.08 328.25L226.55 327.95L225.02 328.25L223.77 329.1Z" id="a4gLUKLmt"></path><path d="M230.65 320.84L232.49 321.71L234.13 322.86L235.56 324.29L236.73 325.94L237.59 327.76L238.14 329.76L238.34 331.88L238.14 334L237.59 335.98L236.73 337.81L235.56 339.48L234.13 340.89L232.49 342.05L230.65 342.93L228.68 343.46L226.55 343.66L224.44 343.46L222.44 342.93L220.61 342.05L218.96 340.89L217.55 339.48L216.39 337.81L215.51 335.98L214.96 334L214.78 331.88L214.96 329.76L215.51 327.76L216.39 325.94L217.55 324.29L218.96 322.86L220.61 321.71L222.44 320.84L224.44 320.29L226.55 320.09L228.68 320.29L230.65 320.84ZM223.77 329.1L222.93 330.35L222.63 331.88L222.93 333.4L223.77 334.65L225.02 335.49L226.55 335.8L228.08 335.49L229.33 334.65L230.18 333.4L230.48 331.88L230.18 330.35L229.33 329.1L228.08 328.25L226.55 327.95L225.02 328.25L223.77 329.1Z" id="fAb8KGoWg"></path><path d="M230.65 320.84L232.49 321.71L234.13 322.86L235.56 324.29L236.73 325.94L237.59 327.76L238.14 329.76L238.34 331.88L238.14 334L237.59 335.98L236.73 337.81L235.56 339.48L234.13 340.89L232.49 342.05L230.65 342.93L228.68 343.46L226.55 343.66L224.44 343.46L222.44 342.93L220.61 342.05L218.96 340.89L217.55 339.48L216.39 337.81L215.51 335.98L214.96 334L214.78 331.88L214.96 329.76L215.51 327.76L216.39 325.94L217.55 324.29L218.96 322.86L220.61 321.71L222.44 320.84L224.44 320.29L226.55 320.09L228.68 320.29L230.65 320.84ZM223.77 329.1L222.93 330.35L222.63 331.88L222.93 333.4L223.77 334.65L225.02 335.49L226.55 335.8L228.08 335.49L229.33 334.65L230.18 333.4L230.48 331.88L230.18 330.35L229.33 329.1L228.08 328.25L226.55 327.95L225.02 328.25L223.77 329.1Z" id="hRSpsnV8o"></path><path d="M230.65 320.84L232.49 321.71L234.13 322.86L235.56 324.29L236.73 325.94L237.59 327.76L238.14 329.76L238.34 331.88L238.14 334L237.59 335.98L236.73 337.81L235.56 339.48L234.13 340.89L232.49 342.05L230.65 342.93L228.68 343.46L226.55 343.66L224.44 343.46L222.44 342.93L220.61 342.05L218.96 340.89L217.55 339.48L216.39 337.81L215.51 335.98L214.96 334L214.78 331.88L214.96 329.76L215.51 327.76L216.39 325.94L217.55 324.29L218.96 322.86L220.61 321.71L222.44 320.84L224.44 320.29L226.55 320.09L228.68 320.29L230.65 320.84ZM223.77 329.1L222.93 330.35L222.63 331.88L222.93 333.4L223.77 334.65L225.02 335.49L226.55 335.8L228.08 335.49L229.33 334.65L230.18 333.4L230.48 331.88L230.18 330.35L229.33 329.1L228.08 328.25L226.55 327.95L225.02 328.25L223.77 329.1Z" id="pgT4nBCuS"></path><path d="M305.26 277.64L307.1 278.5L308.74 279.66L310.18 281.1L311.33 282.74L312.2 284.56L312.75 286.56L312.92 288.68L312.75 290.79L312.2 292.79L311.33 294.61L310.18 296.26L308.74 297.69L307.1 298.84L305.26 299.71L303.28 300.26L301.16 300.46L299.05 300.26L297.05 299.71L295.21 298.84L293.58 297.69L292.15 296.26L290.98 294.61L290.13 292.79L289.56 290.79L289.38 288.68L289.56 286.56L290.13 284.56L290.98 282.74L292.15 281.1L293.58 279.66L295.21 278.5L297.05 277.64L299.05 277.09L301.16 276.89L303.28 277.09L305.26 277.64ZM298.39 285.9L297.54 287.15L297.23 288.68L297.54 290.2L298.39 291.45L299.64 292.3L301.16 292.6L302.69 292.3L303.94 291.45L304.78 290.2L305.09 288.68L304.78 287.15L303.94 285.9L302.69 285.05L301.16 284.75L299.64 285.05L298.39 285.9Z" id="b3bLk3dxFN"></path><path d="M305.26 277.64L307.1 278.5L308.74 279.66L310.18 281.1L311.33 282.74L312.2 284.56L312.75 286.56L312.92 288.68L312.75 290.79L312.2 292.79L311.33 294.61L310.18 296.26L308.74 297.69L307.1 298.84L305.26 299.71L303.28 300.26L301.16 300.46L299.05 300.26L297.05 299.71L295.21 298.84L293.58 297.69L292.15 296.26L290.98 294.61L290.13 292.79L289.56 290.79L289.38 288.68L289.56 286.56L290.13 284.56L290.98 282.74L292.15 281.1L293.58 279.66L295.21 278.5L297.05 277.64L299.05 277.09L301.16 276.89L303.28 277.09L305.26 277.64ZM298.39 285.9L297.54 287.15L297.23 288.68L297.54 290.2L298.39 291.45L299.64 292.3L301.16 292.6L302.69 292.3L303.94 291.45L304.78 290.2L305.09 288.68L304.78 287.15L303.94 285.9L302.69 285.05L301.16 284.75L299.64 285.05L298.39 285.9Z" id="bciafMPkB"></path><path d="M305.26 277.64L307.1 278.5L308.74 279.66L310.18 281.1L311.33 282.74L312.2 284.56L312.75 286.56L312.92 288.68L312.75 290.79L312.2 292.79L311.33 294.61L310.18 296.26L308.74 297.69L307.1 298.84L305.26 299.71L303.28 300.26L301.16 300.46L299.05 300.26L297.05 299.71L295.21 298.84L293.58 297.69L292.15 296.26L290.98 294.61L290.13 292.79L289.56 290.79L289.38 288.68L289.56 286.56L290.13 284.56L290.98 282.74L292.15 281.1L293.58 279.66L295.21 278.5L297.05 277.64L299.05 277.09L301.16 276.89L303.28 277.09L305.26 277.64ZM298.39 285.9L297.54 287.15L297.23 288.68L297.54 290.2L298.39 291.45L299.64 292.3L301.16 292.6L302.69 292.3L303.94 291.45L304.78 290.2L305.09 288.68L304.78 287.15L303.94 285.9L302.69 285.05L301.16 284.75L299.64 285.05L298.39 285.9Z" id="a3O1IUrSax"></path><path d="M305.26 277.64L307.1 278.5L308.74 279.66L310.18 281.1L311.33 282.74L312.2 284.56L312.75 286.56L312.92 288.68L312.75 290.79L312.2 292.79L311.33 294.61L310.18 296.26L308.74 297.69L307.1 298.84L305.26 299.71L303.28 300.26L301.16 300.46L299.05 300.26L297.05 299.71L295.21 298.84L293.58 297.69L292.15 296.26L290.98 294.61L290.13 292.79L289.56 290.79L289.38 288.68L289.56 286.56L290.13 284.56L290.98 282.74L292.15 281.1L293.58 279.66L295.21 278.5L297.05 277.64L299.05 277.09L301.16 276.89L303.28 277.09L305.26 277.64ZM298.39 285.9L297.54 287.15L297.23 288.68L297.54 290.2L298.39 291.45L299.64 292.3L301.16 292.6L302.69 292.3L303.94 291.45L304.78 290.2L305.09 288.68L304.78 287.15L303.94 285.9L302.69 285.05L301.16 284.75L299.64 285.05L298.39 285.9Z" id="cb8yXOh0r"></path><path d="M265.81 343.66C265.81 343.66 265.81 343.66 265.81 343.66C261.11 343.66 258.48 343.66 257.96 343.66C257.96 343.66 257.96 343.66 257.96 343.66C257.96 338.95 257.96 336.33 257.96 335.8C257.96 335.8 257.96 335.8 257.96 335.8C262.68 335.8 265.3 335.8 265.81 335.8C265.81 335.8 265.81 335.8 265.81 335.8C265.81 340.53 265.81 343.14 265.81 343.66Z" id="a6Gr9rctcj"></path><path d="M265.81 343.66C265.81 343.66 265.81 343.66 265.81 343.66C261.11 343.66 258.48 343.66 257.96 343.66C257.96 343.66 257.96 343.66 257.96 343.66C257.96 338.95 257.96 336.33 257.96 335.8C257.96 335.8 257.96 335.8 257.96 335.8C262.68 335.8 265.3 335.8 265.81 335.8C265.81 335.8 265.81 335.8 265.81 335.8C265.81 340.53 265.81 343.14 265.81 343.66Z" id="a32Z27zyiS"></path><path d="M265.81 343.66C265.81 343.66 265.81 343.66 265.81 343.66C261.11 343.66 258.48 343.66 257.96 343.66C257.96 343.66 257.96 343.66 257.96 343.66C257.96 338.95 257.96 336.33 257.96 335.8C257.96 335.8 257.96 335.8 257.96 335.8C262.68 335.8 265.3 335.8 265.81 335.8C265.81 335.8 265.81 335.8 265.81 335.8C265.81 340.53 265.81 343.14 265.81 343.66Z" id="b2ps7UOfaz"></path><path d="M265.81 343.66C265.81 343.66 265.81 343.66 265.81 343.66C261.11 343.66 258.48 343.66 257.96 343.66C257.96 343.66 257.96 343.66 257.96 343.66C257.96 338.95 257.96 336.33 257.96 335.8C257.96 335.8 257.96 335.8 257.96 335.8C262.68 335.8 265.3 335.8 265.81 335.8C265.81 335.8 265.81 335.8 265.81 335.8C265.81 340.53 265.81 343.14 265.81 343.66Z" id="a18tXSqdO7"></path><path d="M344.34 327.95C344.34 327.95 344.34 327.95 344.34 327.95C339.64 327.95 337.03 327.95 336.5 327.95C336.5 327.95 336.5 327.95 336.5 327.95C336.5 323.24 336.5 320.63 336.5 320.09C336.5 320.09 336.5 320.09 336.5 320.09C341.21 320.09 343.83 320.09 344.34 320.09C344.34 320.09 344.34 320.09 344.34 320.09C344.34 324.81 344.34 327.43 344.34 327.95Z" id="aYMxOWqjb"></path><path d="M344.34 327.95C344.34 327.95 344.34 327.95 344.34 327.95C339.64 327.95 337.03 327.95 336.5 327.95C336.5 327.95 336.5 327.95 336.5 327.95C336.5 323.24 336.5 320.63 336.5 320.09C336.5 320.09 336.5 320.09 336.5 320.09C341.21 320.09 343.83 320.09 344.34 320.09C344.34 320.09 344.34 320.09 344.34 320.09C344.34 324.81 344.34 327.43 344.34 327.95Z" id="a1nvcJe7lD"></path><path d="M344.34 327.95C344.34 327.95 344.34 327.95 344.34 327.95C339.64 327.95 337.03 327.95 336.5 327.95C336.5 327.95 336.5 327.95 336.5 327.95C336.5 323.24 336.5 320.63 336.5 320.09C336.5 320.09 336.5 320.09 336.5 320.09C341.21 320.09 343.83 320.09 344.34 320.09C344.34 320.09 344.34 320.09 344.34 320.09C344.34 324.81 344.34 327.43 344.34 327.95Z" id="a190u0JMZ1"></path><path d="M344.34 327.95C344.34 327.95 344.34 327.95 344.34 327.95C339.64 327.95 337.03 327.95 336.5 327.95C336.5 327.95 336.5 327.95 336.5 327.95C336.5 323.24 336.5 320.63 336.5 320.09C336.5 320.09 336.5 320.09 336.5 320.09C341.21 320.09 343.83 320.09 344.34 320.09C344.34 320.09 344.34 320.09 344.34 320.09C344.34 324.81 344.34 327.43 344.34 327.95Z" id="k5st1aUEw9"></path><path d="M281.51 386.86C281.51 386.86 281.51 386.86 281.51 386.86C276.81 386.86 274.2 386.86 273.68 386.86C273.68 386.86 273.68 386.86 273.68 386.86C273.68 382.15 273.68 379.54 273.68 379.01C273.68 379.01 273.68 379.01 273.68 379.01C278.39 379.01 281 379.01 281.51 379.01C281.51 379.01 281.51 379.01 281.51 379.01C281.51 383.73 281.51 386.34 281.51 386.86Z" id="f7s8EyltxK"></path><path d="M281.51 386.86C281.51 386.86 281.51 386.86 281.51 386.86C276.81 386.86 274.2 386.86 273.68 386.86C273.68 386.86 273.68 386.86 273.68 386.86C273.68 382.15 273.68 379.54 273.68 379.01C273.68 379.01 273.68 379.01 273.68 379.01C278.39 379.01 281 379.01 281.51 379.01C281.51 379.01 281.51 379.01 281.51 379.01C281.51 383.73 281.51 386.34 281.51 386.86Z" id="bS0lQOi4k"></path><path d="M281.51 386.86C281.51 386.86 281.51 386.86 281.51 386.86C276.81 386.86 274.2 386.86 273.68 386.86C273.68 386.86 273.68 386.86 273.68 386.86C273.68 382.15 273.68 379.54 273.68 379.01C273.68 379.01 273.68 379.01 273.68 379.01C278.39 379.01 281 379.01 281.51 379.01C281.51 379.01 281.51 379.01 281.51 379.01C281.51 383.73 281.51 386.34 281.51 386.86Z" id="c2hOcNe9il"></path><path d="M281.51 386.86C281.51 386.86 281.51 386.86 281.51 386.86C276.81 386.86 274.2 386.86 273.68 386.86C273.68 386.86 273.68 386.86 273.68 386.86C273.68 382.15 273.68 379.54 273.68 379.01C273.68 379.01 273.68 379.01 273.68 379.01C278.39 379.01 281 379.01 281.51 379.01C281.51 379.01 281.51 379.01 281.51 379.01C281.51 383.73 281.51 386.34 281.51 386.86Z" id="elT7taT0K"></path><path d="M336.5 225.84C336.5 225.84 336.5 225.84 336.5 225.84C331.78 225.84 329.16 225.84 328.64 225.84C328.64 225.84 328.64 225.84 328.64 225.84C328.64 221.13 328.64 218.5 328.64 217.98C328.64 217.98 328.64 217.98 328.64 217.98C333.35 217.98 335.96 217.98 336.5 217.98C336.5 217.98 336.5 217.98 336.5 217.98C336.5 222.69 336.5 225.31 336.5 225.84Z" id="aLWd8SLCJ"></path><path d="M336.5 225.84C336.5 225.84 336.5 225.84 336.5 225.84C331.78 225.84 329.16 225.84 328.64 225.84C328.64 225.84 328.64 225.84 328.64 225.84C328.64 221.13 328.64 218.5 328.64 217.98C328.64 217.98 328.64 217.98 328.64 217.98C333.35 217.98 335.96 217.98 336.5 217.98C336.5 217.98 336.5 217.98 336.5 217.98C336.5 222.69 336.5 225.31 336.5 225.84Z" id="c5RI6B4y62"></path><path d="M336.5 225.84C336.5 225.84 336.5 225.84 336.5 225.84C331.78 225.84 329.16 225.84 328.64 225.84C328.64 225.84 328.64 225.84 328.64 225.84C328.64 221.13 328.64 218.5 328.64 217.98C328.64 217.98 328.64 217.98 328.64 217.98C333.35 217.98 335.96 217.98 336.5 217.98C336.5 217.98 336.5 217.98 336.5 217.98C336.5 222.69 336.5 225.31 336.5 225.84Z" id="b45hLoAOs"></path><path d="M336.5 225.84C336.5 225.84 336.5 225.84 336.5 225.84C331.78 225.84 329.16 225.84 328.64 225.84C328.64 225.84 328.64 225.84 328.64 225.84C328.64 221.13 328.64 218.5 328.64 217.98C328.64 217.98 328.64 217.98 328.64 217.98C333.35 217.98 335.96 217.98 336.5 217.98C336.5 217.98 336.5 217.98 336.5 217.98C336.5 222.69 336.5 225.31 336.5 225.84Z" id="a2KJruO0Tb"></path><path d="M309 324.01C309 324.01 309 324.01 309 324.01C304.29 324.01 301.67 324.01 301.16 324.01C301.16 324.01 301.16 324.01 301.16 324.01C301.16 319.31 301.16 316.7 301.16 316.18C301.16 316.18 301.16 316.18 301.16 316.18C305.86 316.18 308.48 316.18 309 316.18C309 316.18 309 316.18 309 316.18C309 320.89 309 323.5 309 324.01Z" id="cvyJNxfIK"></path><path d="M309 324.01C309 324.01 309 324.01 309 324.01C304.29 324.01 301.67 324.01 301.16 324.01C301.16 324.01 301.16 324.01 301.16 324.01C301.16 319.31 301.16 316.7 301.16 316.18C301.16 316.18 301.16 316.18 301.16 316.18C305.86 316.18 308.48 316.18 309 316.18C309 316.18 309 316.18 309 316.18C309 320.89 309 323.5 309 324.01Z" id="cnASRbimx"></path><path d="M309 324.01C309 324.01 309 324.01 309 324.01C304.29 324.01 301.67 324.01 301.16 324.01C301.16 324.01 301.16 324.01 301.16 324.01C301.16 319.31 301.16 316.7 301.16 316.18C301.16 316.18 301.16 316.18 301.16 316.18C305.86 316.18 308.48 316.18 309 316.18C309 316.18 309 316.18 309 316.18C309 320.89 309 323.5 309 324.01Z" id="erjkgMCnV"></path><path d="M309 324.01C309 324.01 309 324.01 309 324.01C304.29 324.01 301.67 324.01 301.16 324.01C301.16 324.01 301.16 324.01 301.16 324.01C301.16 319.31 301.16 316.7 301.16 316.18C301.16 316.18 301.16 316.18 301.16 316.18C305.86 316.18 308.48 316.18 309 316.18C309 316.18 309 316.18 309 316.18C309 320.89 309 323.5 309 324.01Z" id="esTEtm73z"></path><path d="M238.34 198.34C238.34 198.34 238.34 198.34 238.34 198.34C233.61 198.34 231 198.34 230.48 198.34C230.48 198.34 230.48 198.34 230.48 198.34C230.48 193.63 230.48 191.01 230.48 190.49C230.48 190.49 230.48 190.49 230.48 190.49C235.19 190.49 237.8 190.49 238.34 190.49C238.34 190.49 238.34 190.49 238.34 190.49C238.34 195.2 238.34 197.81 238.34 198.34Z" id="e7VCW4wjV1"></path><path d="M238.34 198.34C238.34 198.34 238.34 198.34 238.34 198.34C233.61 198.34 231 198.34 230.48 198.34C230.48 198.34 230.48 198.34 230.48 198.34C230.48 193.63 230.48 191.01 230.48 190.49C230.48 190.49 230.48 190.49 230.48 190.49C235.19 190.49 237.8 190.49 238.34 190.49C238.34 190.49 238.34 190.49 238.34 190.49C238.34 195.2 238.34 197.81 238.34 198.34Z" id="e1Ew8pYt0e"></path><path d="M238.34 198.34C238.34 198.34 238.34 198.34 238.34 198.34C233.61 198.34 231 198.34 230.48 198.34C230.48 198.34 230.48 198.34 230.48 198.34C230.48 193.63 230.48 191.01 230.48 190.49C230.48 190.49 230.48 190.49 230.48 190.49C235.19 190.49 237.8 190.49 238.34 190.49C238.34 190.49 238.34 190.49 238.34 190.49C238.34 195.2 238.34 197.81 238.34 198.34Z" id="e3CzQn58U7"></path><path d="M238.34 198.34C238.34 198.34 238.34 198.34 238.34 198.34C233.61 198.34 231 198.34 230.48 198.34C230.48 198.34 230.48 198.34 230.48 198.34C230.48 193.63 230.48 191.01 230.48 190.49C230.48 190.49 230.48 190.49 230.48 190.49C235.19 190.49 237.8 190.49 238.34 190.49C238.34 190.49 238.34 190.49 238.34 190.49C238.34 195.2 238.34 197.81 238.34 198.34Z" id="a24ZtbuBiP"></path><path d="M344.23 269.04C344.23 260.3 351.33 253.2 360.05 253.2C368.79 253.2 375.89 260.3 375.89 269.04C375.89 277.76 368.79 284.86 360.05 284.86C351.33 284.86 344.23 277.76 344.23 269.04Z" id="b3IT5dHf68"></path><path d="M344.23 269.04C344.23 260.3 351.33 253.2 360.05 253.2C368.79 253.2 375.89 260.3 375.89 269.04C375.89 277.76 368.79 284.86 360.05 284.86C351.33 284.86 344.23 277.76 344.23 269.04Z" id="d3BLrioXQx"></path><path d="M296.98 288.55C296.98 286.3 298.79 284.49 301.02 284.49C303.27 284.49 305.09 286.3 305.09 288.55C305.09 290.79 303.27 292.6 301.02 292.6C298.79 292.6 296.98 290.79 296.98 288.55Z" id="aby9M9FhQ"></path><path d="M296.98 288.55C296.98 286.3 298.79 284.49 301.02 284.49C303.27 284.49 305.09 286.3 305.09 288.55C305.09 290.79 303.27 292.6 301.02 292.6C298.79 292.6 296.98 290.79 296.98 288.55Z" id="a5kjZAKfYs"></path><path d="M222.49 332C222.49 329.76 224.31 327.95 226.55 327.95C228.79 327.95 230.61 329.76 230.61 332C230.61 334.24 228.79 336.06 226.55 336.06C224.31 336.06 222.49 334.24 222.49 332Z" id="b5jeqO6PR5"></path><path d="M222.49 332C222.49 329.76 224.31 327.95 226.55 327.95C228.79 327.95 230.61 329.76 230.61 332C230.61 334.24 228.79 336.06 226.55 336.06C224.31 336.06 222.49 334.24 222.49 332Z" id="ad76ACOkM"></path><path d="M339.13 382.95C339.16 384.53 329.89 388.2 322.95 390.95C318.85 392.55 315.33 393.55 314.2 393.99C311.1 395.18 303.77 397.1 302.49 397.25C301.21 397.39 300.95 394.24 300.95 390.33C300.95 387.44 301.81 384.11 303.8 380.84C304.59 379.56 305.58 378.28 306.77 377C307.49 376.24 308.61 375.25 309.64 374.54C310.94 373.64 312.39 372.93 313.8 372.36C315.85 371.5 317.76 370.9 318.89 370.9C321.19 370.9 322.88 370.65 326.26 371.71C326.55 371.81 330.01 373.14 332.2 374.73C335.78 377.35 339.08 381.3 339.13 382.95Z" id="b1oFRTZJj5"></path><path d="M339.13 382.95C339.16 384.53 329.89 388.2 322.95 390.95C318.85 392.55 315.33 393.55 314.2 393.99C311.1 395.18 303.77 397.1 302.49 397.25C301.21 397.39 300.95 394.24 300.95 390.33C300.95 387.44 301.81 384.11 303.8 380.84C304.59 379.56 305.58 378.28 306.77 377C307.49 376.24 308.61 375.25 309.64 374.54C310.94 373.64 312.39 372.93 313.8 372.36C315.85 371.5 317.76 370.9 318.89 370.9C321.19 370.9 322.88 370.65 326.26 371.71C326.55 371.81 330.01 373.14 332.2 374.73C335.78 377.35 339.08 381.3 339.13 382.95Z" id="b2ogAUgaId"></path></defs><g><g><g><use xlink:href="#aGxJZ2qxd" opacity="1" fill="#051838" fill-opacity="1"></use></g><g><use xlink:href="#emMEGEbQF" opacity="1" fill="#ffffff" fill-opacity="1"></use><g><use xlink:href="#emMEGEbQF" opacity="1" fill-opacity="0" stroke="#000000" stroke-width="1" stroke-opacity="0"></use></g></g><g><use xlink:href="#dNOFK5Hli" opacity="1" fill="#280e5e" fill-opacity="1"></use><g><use xlink:href="#dNOFK5Hli" opacity="1" fill-opacity="0" stroke="#000000" stroke-width="1" stroke-opacity="0"></use></g></g><g><use xlink:href="#hxXKgiHLd" opacity="1" fill="#051838" fill-opacity="1"></use><g><use xlink:href="#hxXKgiHLd" opacity="1" fill-opacity="0" stroke="#000000" stroke-width="1" stroke-opacity="0"></use></g></g><g><use xlink:href="#dRGj0IHMv" opacity="1" fill="#000000" fill-opacity="0"></use><g><use xlink:href="#dRGj0IHMv" opacity="1" fill-opacity="0" stroke="#000000" stroke-width="1" stroke-opacity="0"></use></g></g><g><use xlink:href="#g30mGsHTtJ" opacity="1" fill="#051838" fill-opacity="0"></use><g><use xlink:href="#g30mGsHTtJ" opacity="1" fill-opacity="0" stroke="#000000" stroke-width="1" stroke-opacity="0"></use></g></g><g><use xlink:href="#c1B2m7ABJu" opacity="1" fill="#280e5e" fill-opacity="1"></use><g><use xlink:href="#c1B2m7ABJu" opacity="1" fill-opacity="0" stroke="#000000" stroke-width="1" stroke-opacity="0"></use></g></g><g><use xlink:href="#a1CpPnuBKy" opacity="1" fill="#000000" fill-opacity="0"></use><g><use xlink:href="#a1CpPnuBKy" opacity="1" fill-opacity="0" stroke="#000000" stroke-width="1" stroke-opacity="0"></use></g></g><g><use xlink:href="#eBzCOEYpX" opacity="1" fill="#000000" fill-opacity="0"></use><g><use xlink:href="#eBzCOEYpX" opacity="1" fill-opacity="0" stroke="#000000" stroke-width="1" stroke-opacity="0"></use></g></g><g><use xlink:href="#c79XkIPaq0" opacity="1" fill="#051838" fill-opacity="1"></use><g><use xlink:href="#c79XkIPaq0" opacity="1" fill-opacity="0" stroke="#000000" stroke-width="1" stroke-opacity="0"></use></g></g><g><use xlink:href="#a3p20oU8j" opacity="1" fill="#280e5e" fill-opacity="1"></use><g><use xlink:href="#a3p20oU8j" opacity="1" fill-opacity="0" stroke="#000000" stroke-width="1" stroke-opacity="0"></use></g></g><g><use xlink:href="#abxffDzz7" opacity="1" fill="#000000" fill-opacity="0"></use><g><use xlink:href="#abxffDzz7" opacity="1" fill-opacity="0" stroke="#000000" stroke-width="1" stroke-opacity="0"></use></g></g><g><use xlink:href="#a1eBFqny6Y" opacity="1" fill="#000000" fill-opacity="0"></use><g><use xlink:href="#a1eBFqny6Y" opacity="1" fill-opacity="0" stroke="#000000" stroke-width="1" stroke-opacity="0"></use></g></g><g><use xlink:href="#c2ub8aBcnY" opacity="1" fill="#051838" fill-opacity="1"></use><g><use xlink:href="#c2ub8aBcnY" opacity="1" fill-opacity="0" stroke="#000000" stroke-width="1" stroke-opacity="0"></use></g></g><g><use xlink:href="#a4gLUKLmt" opacity="1" fill="#280e5e" fill-opacity="1"></use><g><use xlink:href="#a4gLUKLmt" opacity="1" fill-opacity="0" stroke="#000000" stroke-width="1" stroke-opacity="0"></use></g></g><g><use xlink:href="#fAb8KGoWg" opacity="1" fill="#000000" fill-opacity="0"></use><g><use xlink:href="#fAb8KGoWg" opacity="1" fill-opacity="0" stroke="#000000" stroke-width="1" stroke-opacity="0"></use></g></g><g><use xlink:href="#hRSpsnV8o" opacity="1" fill="#000000" fill-opacity="0"></use><g><use xlink:href="#hRSpsnV8o" opacity="1" fill-opacity="0" stroke="#000000" stroke-width="1" stroke-opacity="0"></use></g></g><g><use xlink:href="#pgT4nBCuS" opacity="1" fill="#051838" fill-opacity="1"></use><g><use xlink:href="#pgT4nBCuS" opacity="1" fill-opacity="0" stroke="#000000" stroke-width="1" stroke-opacity="0"></use></g></g><g><use xlink:href="#b3bLk3dxFN" opacity="1" fill="#280e5e" fill-opacity="1"></use><g><use xlink:href="#b3bLk3dxFN" opacity="1" fill-opacity="0" stroke="#000000" stroke-width="1" stroke-opacity="0"></use></g></g><g><use xlink:href="#bciafMPkB" opacity="1" fill="#000000" fill-opacity="0"></use><g><use xlink:href="#bciafMPkB" opacity="1" fill-opacity="0" stroke="#000000" stroke-width="1" stroke-opacity="0"></use></g></g><g><use xlink:href="#a3O1IUrSax" opacity="1" fill="#000000" fill-opacity="0"></use><g><use xlink:href="#a3O1IUrSax" opacity="1" fill-opacity="0" stroke="#000000" stroke-width="1" stroke-opacity="0"></use></g></g><g><use xlink:href="#cb8yXOh0r" opacity="1" fill="#051838" fill-opacity="1"></use><g><use xlink:href="#cb8yXOh0r" opacity="1" fill-opacity="0" stroke="#000000" stroke-width="1" stroke-opacity="0"></use></g></g><g><use xlink:href="#a6Gr9rctcj" opacity="1" fill="#280e5e" fill-opacity="1"></use><g><use xlink:href="#a6Gr9rctcj" opacity="1" fill-opacity="0" stroke="#000000" stroke-width="1" stroke-opacity="0"></use></g></g><g><use xlink:href="#a32Z27zyiS" opacity="1" fill="#000000" fill-opacity="0"></use><g><use xlink:href="#a32Z27zyiS" opacity="1" fill-opacity="0" stroke="#000000" stroke-width="1" stroke-opacity="0"></use></g></g><g><use xlink:href="#b2ps7UOfaz" opacity="1" fill="#000000" fill-opacity="0"></use><g><use xlink:href="#b2ps7UOfaz" opacity="1" fill-opacity="0" stroke="#000000" stroke-width="1" stroke-opacity="0"></use></g></g><g><use xlink:href="#a18tXSqdO7" opacity="1" fill="#051838" fill-opacity="1"></use><g><use xlink:href="#a18tXSqdO7" opacity="1" fill-opacity="0" stroke="#000000" stroke-width="1" stroke-opacity="0"></use></g></g><g><use xlink:href="#aYMxOWqjb" opacity="1" fill="#280e5e" fill-opacity="1"></use><g><use xlink:href="#aYMxOWqjb" opacity="1" fill-opacity="0" stroke="#000000" stroke-width="1" stroke-opacity="0"></use></g></g><g><use xlink:href="#a1nvcJe7lD" opacity="1" fill="#000000" fill-opacity="0"></use><g><use xlink:href="#a1nvcJe7lD" opacity="1" fill-opacity="0" stroke="#000000" stroke-width="1" stroke-opacity="0"></use></g></g><g><use xlink:href="#a190u0JMZ1" opacity="1" fill="#000000" fill-opacity="0"></use><g><use xlink:href="#a190u0JMZ1" opacity="1" fill-opacity="0" stroke="#000000" stroke-width="1" stroke-opacity="0"></use></g></g><g><use xlink:href="#k5st1aUEw9" opacity="1" fill="#000000" fill-opacity="0"></use><g><use xlink:href="#k5st1aUEw9" opacity="1" fill-opacity="0" stroke="#000000" stroke-width="1" stroke-opacity="0"></use></g></g><g><use xlink:href="#f7s8EyltxK" opacity="1" fill="#280e5e" fill-opacity="1"></use><g><use xlink:href="#f7s8EyltxK" opacity="1" fill-opacity="0" stroke="#000000" stroke-width="1" stroke-opacity="0"></use></g></g><g><use xlink:href="#bS0lQOi4k" opacity="1" fill="#000000" fill-opacity="0"></use><g><use xlink:href="#bS0lQOi4k" opacity="1" fill-opacity="0" stroke="#000000" stroke-width="1" stroke-opacity="0"></use></g></g><g><use xlink:href="#c2hOcNe9il" opacity="1" fill="#000000" fill-opacity="0"></use><g><use xlink:href="#c2hOcNe9il" opacity="1" fill-opacity="0" stroke="#000000" stroke-width="1" stroke-opacity="0"></use></g></g><g><use xlink:href="#elT7taT0K" opacity="1" fill="#051838" fill-opacity="1"></use><g><use xlink:href="#elT7taT0K" opacity="1" fill-opacity="0" stroke="#000000" stroke-width="1" stroke-opacity="0"></use></g></g><g><use xlink:href="#aLWd8SLCJ" opacity="1" fill="#280e5e" fill-opacity="1"></use><g><use xlink:href="#aLWd8SLCJ" opacity="1" fill-opacity="0" stroke="#000000" stroke-width="1" stroke-opacity="0"></use></g></g><g><use xlink:href="#c5RI6B4y62" opacity="1" fill="#000000" fill-opacity="0"></use><g><use xlink:href="#c5RI6B4y62" opacity="1" fill-opacity="0" stroke="#000000" stroke-width="1" stroke-opacity="0"></use></g></g><g><use xlink:href="#b45hLoAOs" opacity="1" fill="#000000" fill-opacity="0"></use><g><use xlink:href="#b45hLoAOs" opacity="1" fill-opacity="0" stroke="#000000" stroke-width="1" stroke-opacity="0"></use></g></g><g><use xlink:href="#a2KJruO0Tb" opacity="1" fill="#051838" fill-opacity="1"></use><g><use xlink:href="#a2KJruO0Tb" opacity="1" fill-opacity="0" stroke="#000000" stroke-width="1" stroke-opacity="0"></use></g></g><g><use xlink:href="#cvyJNxfIK" opacity="1" fill="#280e5e" fill-opacity="1"></use><g><use xlink:href="#cvyJNxfIK" opacity="1" fill-opacity="0" stroke="#000000" stroke-width="1" stroke-opacity="0"></use></g></g><g><use xlink:href="#cnASRbimx" opacity="1" fill="#000000" fill-opacity="0"></use><g><use xlink:href="#cnASRbimx" opacity="1" fill-opacity="0" stroke="#000000" stroke-width="1" stroke-opacity="0"></use></g></g><g><use xlink:href="#erjkgMCnV" opacity="1" fill="#000000" fill-opacity="0"></use><g><use xlink:href="#erjkgMCnV" opacity="1" fill-opacity="0" stroke="#000000" stroke-width="1" stroke-opacity="0"></use></g></g><g><use xlink:href="#esTEtm73z" opacity="1" fill="#051838" fill-opacity="1"></use><g><use xlink:href="#esTEtm73z" opacity="1" fill-opacity="0" stroke="#000000" stroke-width="1" stroke-opacity="0"></use></g></g><g><use xlink:href="#e7VCW4wjV1" opacity="1" fill="#280e5e" fill-opacity="1"></use><g><use xlink:href="#e7VCW4wjV1" opacity="1" fill-opacity="0" stroke="#000000" stroke-width="1" stroke-opacity="0"></use></g></g><g><use xlink:href="#e1Ew8pYt0e" opacity="1" fill="#000000" fill-opacity="0"></use><g><use xlink:href="#e1Ew8pYt0e" opacity="1" fill-opacity="0" stroke="#000000" stroke-width="1" stroke-opacity="0"></use></g></g><g><use xlink:href="#e3CzQn58U7" opacity="1" fill="#000000" fill-opacity="0"></use><g><use xlink:href="#e3CzQn58U7" opacity="1" fill-opacity="0" stroke="#000000" stroke-width="1" stroke-opacity="0"></use></g></g><g><use xlink:href="#a24ZtbuBiP" opacity="1" fill="#051838" fill-opacity="1"></use><g><use xlink:href="#a24ZtbuBiP" opacity="1" fill-opacity="0" stroke="#000000" stroke-width="1" stroke-opacity="0"></use></g></g><g><use xlink:href="#b3IT5dHf68" opacity="1" fill="#f8e080" fill-opacity="1"></use><g><use xlink:href="#b3IT5dHf68" opacity="1" fill-opacity="0" stroke="#000000" stroke-width="1" stroke-opacity="0"></use></g></g><g><use xlink:href="#d3BLrioXQx" opacity="1" fill="#000000" fill-opacity="0"></use><g><use xlink:href="#d3BLrioXQx" opacity="1" fill-opacity="0" stroke="#000000" stroke-width="1" stroke-opacity="0"></use></g></g><g><use xlink:href="#aby9M9FhQ" opacity="1" fill="#f8e080" fill-opacity="1"></use><g><use xlink:href="#aby9M9FhQ" opacity="1" fill-opacity="0" stroke="#000000" stroke-width="1" stroke-opacity="0"></use></g></g><g><use xlink:href="#a5kjZAKfYs" opacity="1" fill="#000000" fill-opacity="0"></use><g><use xlink:href="#a5kjZAKfYs" opacity="1" fill-opacity="0" stroke="#000000" stroke-width="1" stroke-opacity="0"></use></g></g><g><use xlink:href="#b5jeqO6PR5" opacity="1" fill="#f8e080" fill-opacity="1"></use><g><use xlink:href="#b5jeqO6PR5" opacity="1" fill-opacity="0" stroke="#000000" stroke-width="1" stroke-opacity="0"></use></g></g><g><use xlink:href="#ad76ACOkM" opacity="1" fill="#000000" fill-opacity="0"></use><g><use xlink:href="#ad76ACOkM" opacity="1" fill-opacity="0" stroke="#000000" stroke-width="1" stroke-opacity="0"></use></g></g><g><use xlink:href="#b1oFRTZJj5" opacity="1" fill="#f8e080" fill-opacity="1"></use><g><use xlink:href="#b1oFRTZJj5" opacity="1" fill-opacity="0" stroke="#000000" stroke-width="1" stroke-opacity="0"></use></g></g><g><use xlink:href="#b2ogAUgaId" opacity="1" fill="#000000" fill-opacity="0"></use><g><use xlink:href="#b2ogAUgaId" opacity="1" fill-opacity="0" stroke="#000000" stroke-width="1" stroke-opacity="0"></use></g></g></g></g></svg>