<?xml version="1.0" encoding="UTF-8" standalone="no"?>
<!DOCTYPE svg PUBLIC "-//W3C//DTD SVG 1.1//EN" "http://www.w3.org/Graphics/SVG/1.1/DTD/svg11.dtd">
<svg version="1.1" xmlns="http://www.w3.org/2000/svg" xmlns:xlink="http://www.w3.org/1999/xlink" preserveAspectRatio="xMidYMid meet" viewBox="0 0 640 640" width="640" height="640"><defs><path d="M319.86 14.03L319.94 14.03L320.03 14.03L320.11 14.03L320.2 14.03L320.28 14.04L320.37 14.04L320.43 14.04L320.48 14.04L320.54 14.04L320.6 14.04L320.65 14.04L320.77 14.04L320.88 14.04L320.94 14.05L320.99 14.05L321.05 14.05L321.11 14.05L321.16 14.05L321.22 14.05L321.28 14.05L321.33 14.05L321.39 14.05L321.45 14.06L321.5 14.06L321.56 14.06L321.61 14.06L321.67 14.06L321.73 14.06L321.78 14.07L321.84 14.07L321.9 14.07L321.95 14.07L322.01 14.08L322.07 14.08L322.12 14.08L322.18 14.09L322.24 14.09L322.29 14.09L322.35 14.1L322.41 14.1L322.46 14.11L322.52 14.11L322.58 14.12L322.63 14.12L322.71 14.13L322.79 14.14L322.86 14.15L322.94 14.15L323.02 14.16L323.09 14.17L323.17 14.18L323.24 14.19L323.32 14.2L323.4 14.21L323.47 14.22L323.55 14.23L323.62 14.25L323.7 14.26L323.78 14.27L323.85 14.28L323.93 14.29L324 14.31L324.08 14.32L324.15 14.33L324.23 14.35L324.3 14.36L324.38 14.37L324.45 14.39L324.53 14.4L324.61 14.42L324.68 14.43L324.76 14.45L324.83 14.46L324.91 14.48L324.98 14.49L325.05 14.51L325.13 14.52L325.2 14.54L325.28 14.55L325.35 14.57L325.43 14.58L325.5 14.6L325.58 14.62L325.65 14.63L325.7 14.64L325.74 14.65L325.79 14.66L325.84 14.67L325.88 14.67L325.93 14.68L325.98 14.69L326.02 14.7L326.07 14.7L326.12 14.71L326.16 14.72L326.21 14.72L326.26 14.73L326.3 14.73L326.35 14.74L326.4 14.75L326.49 14.76L326.53 14.76L326.58 14.77L326.63 14.78L326.67 14.78L326.72 14.79L326.77 14.8L326.81 14.8L326.86 14.81L326.91 14.82L326.95 14.82L327 14.83L327.05 14.84L327.09 14.85L327.14 14.86L327.19 14.87L327.24 14.88L327.28 14.89L327.33 14.9L327.38 14.91L327.43 14.92L327.47 14.93L327.52 14.94L327.55 14.95L327.57 14.96L327.59 14.96L327.62 14.97L327.64 14.98L327.67 14.99L327.69 15L327.71 15L327.74 15.01L327.76 15.02L327.79 15.03L327.81 15.04L327.83 15.05L327.86 15.06L327.88 15.07L327.91 15.08L327.93 15.09L327.95 15.1L327.98 15.11L328 15.12L328.02 15.13L328.05 15.14L328.07 15.16L328.14 15.19L328.17 15.2L328.19 15.21L328.21 15.22L328.24 15.23L328.26 15.24L328.28 15.25L328.31 15.26L328.33 15.27L328.35 15.28L328.38 15.29L328.4 15.3L328.42 15.31L328.45 15.32L328.47 15.33L328.51 15.34L328.55 15.35L328.59 15.36L328.63 15.38L328.67 15.39L328.71 15.41L328.75 15.42L328.79 15.43L328.83 15.45L328.87 15.46L328.91 15.48L328.94 15.49L328.98 15.51L329.02 15.52L329.06 15.54L329.1 15.55L329.14 15.57L329.18 15.58L329.22 15.6L329.25 15.61L329.29 15.63L329.33 15.65L329.37 15.66L329.41 15.68L329.45 15.69L329.48 15.71L329.52 15.72L329.6 15.76L329.64 15.77L329.72 15.81L329.75 15.82L329.79 15.84L329.83 15.85L329.87 15.87L329.91 15.89L329.95 15.9L329.99 15.92L330.03 15.93L330.12 15.97L330.22 16.01L330.31 16.05L330.41 16.09L330.51 16.13L330.6 16.17L330.7 16.21L330.79 16.24L330.89 16.28L330.98 16.32L331.08 16.36L331.17 16.4L331.26 16.44L331.36 16.49L331.45 16.53L331.55 16.57L331.64 16.61L331.74 16.65L331.83 16.69L331.92 16.74L332.02 16.78L332.11 16.82L332.2 16.87L332.29 16.91L332.39 16.95L332.48 17L332.57 17.04L332.66 17.09L332.76 17.14L332.85 17.18L332.94 17.23L333.03 17.28L333.12 17.33L333.21 17.37L333.3 17.42L333.39 17.47L333.48 17.52L333.57 17.57L333.66 17.62L333.75 17.68L333.76 17.68L333.77 17.69L333.78 17.69L333.8 17.7L333.81 17.71L333.82 17.72L333.83 17.72L333.85 17.73L333.87 17.75L333.88 17.75L333.89 17.76L333.91 17.77L333.93 17.79L333.94 17.8L333.97 17.82L334.05 17.87L334.07 17.89L334.09 17.9L334.1 17.91L334.12 17.92L334.14 17.93L334.6 18.21L335.05 18.5L335.51 18.8L335.95 19.11L336.39 19.43L336.83 19.75L337.25 20.08L337.67 20.42L338.09 20.77L338.5 21.12L338.9 21.48L339.3 21.85L339.68 22.23L340.07 22.61L340.44 23L340.81 23.39L341.17 23.8L341.52 24.2L341.87 24.62L342.21 25.04L342.54 25.46L342.86 25.9L343.17 26.33L343.48 26.78L343.78 27.23L344.07 27.68L344.35 28.14L344.63 28.6L344.89 29.07L345.15 29.54L345.4 30.02L345.63 30.5L345.86 30.99L346.08 31.48L346.3 31.97L346.5 32.47L346.69 32.98L346.87 33.48L347.05 33.99L347.21 34.5L347.21 34.51L347.21 34.52L347.21 34.52L347.21 34.53L347.21 34.53L347.22 34.54L347.22 34.55L347.22 34.56L347.23 34.57L347.23 34.57L347.23 34.58L347.24 34.59L347.24 34.6L347.24 34.61L347.25 34.61L347.25 34.62L347.26 34.64L347.27 34.66L347.28 34.68L347.28 34.68L347.28 34.69L347.28 34.69L347.29 34.7L347.29 34.72L347.4 35.05L347.51 35.38L347.62 35.71L347.73 36.04L347.84 36.37L347.95 36.7L348.06 37.04L348.16 37.37L348.27 37.7L348.38 38.03L348.49 38.36L348.6 38.7L348.71 39.03L348.81 39.36L348.92 39.69L349.03 40.02L349.14 40.36L349.24 40.69L349.35 41.02L349.46 41.35L349.68 42.02L349.78 42.35L349.89 42.68L350 43.01L350.11 43.35L350.22 43.68L350.32 44.01L350.43 44.34L350.54 44.68L350.65 45.01L350.76 45.34L350.87 45.67L350.97 46.01L351.08 46.34L351.19 46.67L351.3 47L351.41 47.34L351.52 47.67L351.63 48L353.07 52.45L354.51 56.89L355.96 61.34L357.4 65.78L358.85 70.23L360.29 74.67L361.73 79.12L363.18 83.57L364.62 88.01L366.07 92.46L367.51 96.9L368.95 101.35L370.4 105.79L371.84 110.24L373.29 114.69L374.73 119.13L376.18 123.58L377.62 128.02L379.06 132.47L380.51 136.91L381.95 141.36L383.4 145.8L384.84 150.25L386.29 154.7L387.73 159.14L389.18 163.59L390.62 168.03L392.07 172.48L393.51 176.92L394.95 181.37L396.4 185.82L397.84 190.26L399.29 194.71L400.73 199.15L402.18 203.6L403.62 208.04L405.07 212.49L406.51 216.93L407.96 221.38L409.4 225.83L611.62 225.83L612.56 225.84L613.5 225.89L614.43 225.97L615.36 226.08L616.28 226.22L617.19 226.39L618.09 226.59L618.98 226.82L619.87 227.08L620.74 227.37L621.6 227.68L622.45 228.02L623.29 228.39L624.12 228.78L624.93 229.2L625.73 229.64L626.51 230.11L627.28 230.61L628.03 231.12L628.76 231.66L629.48 232.23L630.18 232.81L630.86 233.42L631.52 234.05L632.16 234.7L632.78 235.37L633.38 236.06L633.96 236.77L634.51 237.5L635.05 238.24L635.55 239.01L636.04 239.79L636.5 240.59L636.93 241.4L637.34 242.24L637.71 243.08L638.07 243.95L638.39 244.82L638.69 245.71L638.95 246.62L639.21 247.6L639.42 248.58L639.6 249.55L639.75 250.51L639.86 251.47L639.94 252.41L639.98 253.35L639.99 254.28L639.97 255.2L639.91 256.11L639.83 257.02L639.71 257.91L639.56 258.8L639.38 259.67L639.18 260.54L638.94 261.39L638.67 262.24L638.38 263.08L638.06 263.9L637.71 264.72L637.34 265.52L636.94 266.32L636.52 267.1L636.07 267.87L635.59 268.63L635.1 269.38L634.58 270.12L634.03 270.85L633.47 271.56L632.88 272.27L632.28 272.96L631.65 273.64L631 274.3L630.33 274.95L629.65 275.59L628.94 276.22L628.22 276.84L627.48 277.44L626.72 278.03L625.95 278.6L625.67 278.81L625.38 279.01L625.1 279.22L624.82 279.42L624.54 279.63L624.26 279.84L623.97 280.04L623.69 280.25L623.41 280.45L623.13 280.66L622.84 280.86L622.56 281.07L622.28 281.27L622 281.48L621.72 281.69L621.43 281.89L621.15 282.1L620.87 282.3L620.59 282.51L620.31 282.71L620.02 282.92L619.74 283.12L619.46 283.33L619.18 283.53L618.9 283.74L618.61 283.94L618.33 284.15L618.05 284.35L617.77 284.56L617.48 284.76L617.2 284.97L616.92 285.17L616.64 285.38L616.36 285.58L616.07 285.79L615.79 285.99L615.51 286.2L615.23 286.4L614.94 286.61L614.66 286.81L610.91 289.54L607.16 292.26L603.41 294.99L599.66 297.71L595.91 300.44L592.16 303.16L588.4 305.89L584.65 308.61L580.9 311.34L577.15 314.06L573.4 316.79L569.65 319.51L565.9 322.24L562.15 324.96L558.4 327.68L554.65 330.41L550.9 333.13L547.15 335.86L543.4 338.58L539.65 341.31L535.89 344.03L532.14 346.76L528.39 349.48L524.64 352.21L520.89 354.93L517.14 357.65L513.39 360.38L509.64 363.1L505.89 365.83L502.14 368.55L498.39 371.27L494.64 374L490.89 376.72L487.14 379.45L483.39 382.17L479.64 384.89L475.89 387.62L472.14 390.34L468.39 393.07L464.64 395.79L466.21 400.63L467.79 405.48L469.36 410.32L470.93 415.16L472.51 420L474.08 424.85L475.65 429.69L477.23 434.53L478.8 439.37L480.38 444.21L481.95 449.06L483.52 453.9L485.1 458.74L486.67 463.58L488.25 468.42L489.82 473.27L491.39 478.11L492.97 482.95L494.54 487.79L496.12 492.63L497.69 497.48L499.26 502.32L500.84 507.16L502.41 512L503.99 516.84L505.56 521.69L507.13 526.53L508.71 531.37L510.28 536.21L511.85 541.05L513.43 545.9L515 550.74L516.57 555.58L518.15 560.42L519.72 565.26L521.29 570.11L522.87 574.95L524.44 579.79L526.01 584.64L527.58 589.48L528.06 591.16L528.41 592.85L528.64 594.54L528.74 596.22L528.72 597.9L528.59 599.56L528.35 601.21L528.01 602.83L527.56 604.44L527.01 606.01L526.38 607.56L525.65 609.07L524.84 610.54L523.95 611.96L522.98 613.34L521.94 614.67L520.83 615.95L519.65 617.17L518.42 618.32L517.13 619.41L515.79 620.43L514.4 621.38L512.96 622.25L511.49 623.03L509.99 623.74L508.45 624.35L506.88 624.87L505.29 625.29L503.69 625.62L502.07 625.84L500.43 625.95L498.8 625.95L497.16 625.83L495.52 625.6L493.89 625.24L492.27 624.75L490.66 624.14L489.07 623.38L487.51 622.49L485.97 621.46L485.69 621.25L485.4 621.05L485.12 620.84L484.84 620.64L484.56 620.43L484.28 620.23L483.99 620.02L483.71 619.82L483.43 619.61L483.15 619.41L482.86 619.2L482.58 619L482.3 618.79L482.02 618.59L481.74 618.39L481.45 618.18L481.17 617.98L480.89 617.77L480.61 617.57L480.33 617.36L480.04 617.16L479.76 616.95L479.48 616.75L479.2 616.54L478.92 616.34L478.63 616.13L478.35 615.93L478.07 615.72L477.79 615.52L477.5 615.32L477.22 615.11L476.94 614.91L476.66 614.7L476.38 614.5L476.09 614.29L475.81 614.09L475.53 613.89L475.25 613.68L474.96 613.48L474.68 613.27L470.81 610.46L466.95 607.65L463.08 604.84L459.21 602.03L455.35 599.22L451.48 596.41L447.61 593.6L443.75 590.79L439.88 587.98L436.01 585.17L432.15 582.36L428.28 579.55L424.41 576.74L420.55 573.93L416.68 571.12L412.81 568.32L408.95 565.51L405.08 562.7L401.21 559.89L393.48 554.27L389.61 551.46L385.75 548.65L381.88 545.84L378.01 543.03L374.15 540.22L370.28 537.41L366.41 534.6L362.55 531.8L358.68 528.99L354.81 526.18L350.95 523.37L347.08 520.56L343.21 517.75L339.35 514.94L335.48 512.13L331.61 509.32L327.75 506.51L323.88 503.7L320.01 500.88L315.86 503.9L311.72 506.91L307.57 509.93L303.42 512.94L299.27 515.96L295.12 518.97L290.97 521.99L286.82 525L282.67 528.02L278.52 531.03L274.38 534.04L270.23 537.06L266.08 540.07L261.93 543.09L257.78 546.1L253.63 549.12L249.48 552.13L245.33 555.14L241.18 558.16L232.89 564.19L228.74 567.2L224.59 570.21L220.44 573.23L216.29 576.24L212.14 579.26L208 582.27L203.85 585.29L199.7 588.3L195.55 591.31L191.4 594.33L187.25 597.34L183.1 600.36L178.95 603.37L174.8 606.39L170.65 609.4L166.51 612.42L162.36 615.43L158.21 618.45L154.06 621.46L152.52 622.49L150.96 623.38L149.37 624.14L147.76 624.75L146.14 625.24L144.51 625.6L142.87 625.83L141.23 625.95L139.6 625.95L137.97 625.84L136.34 625.62L134.74 625.29L133.15 624.87L131.58 624.35L130.04 623.74L128.54 623.03L127.06 622.25L125.63 621.38L124.24 620.43L122.9 619.41L121.61 618.32L120.37 617.17L119.2 615.95L118.09 614.67L117.05 613.34L116.08 611.96L115.18 610.54L114.37 609.07L113.64 607.56L113 606.01L112.46 604.44L112.01 602.83L111.66 601.21L111.42 599.56L111.29 597.9L111.28 596.22L111.38 594.54L111.6 592.85L111.95 591.16L112.43 589.48L112.54 589.15L112.65 588.81L112.86 588.15L112.97 587.82L113.08 587.48L113.19 587.15L113.3 586.82L113.41 586.49L113.51 586.15L113.62 585.82L113.73 585.49L113.84 585.16L113.95 584.82L114.06 584.49L114.16 584.16L114.27 583.83L114.38 583.49L114.49 583.16L114.6 582.83L114.7 582.5L114.81 582.17L114.92 581.83L115.03 581.5L115.14 581.17L115.24 580.84L115.35 580.51L115.46 580.17L115.57 579.84L115.68 579.51L115.78 579.18L115.89 578.85L116 578.51L116.11 578.18L116.21 577.85L116.32 577.52L116.43 577.19L116.54 576.86L116.64 576.52L116.75 576.19L118.22 571.68L119.69 567.17L121.15 562.66L122.62 558.16L124.08 553.65L125.55 549.14L127.02 544.63L128.48 540.12L129.95 535.61L131.42 531.1L132.88 526.59L134.35 522.08L135.81 517.57L137.28 513.06L138.75 508.55L140.21 504.04L141.68 499.53L143.14 495.02L144.61 490.51L146.07 486.01L147.54 481.5L149 476.99L150.47 472.48L151.93 467.97L153.4 463.46L154.87 458.95L156.33 454.44L157.8 449.93L159.26 445.42L160.73 440.91L162.19 436.4L163.66 431.89L165.12 427.38L166.59 422.87L168.05 418.36L169.52 413.86L170.98 409.35L172.44 404.84L173.91 400.33L175.37 395.82L171.34 392.89L167.31 389.96L163.27 387.03L159.24 384.1L155.21 381.17L151.17 378.24L147.14 375.31L143.11 372.38L139.08 369.45L135.04 366.52L131.01 363.59L126.98 360.66L122.94 357.73L118.91 354.8L114.88 351.87L110.84 348.94L106.81 346.01L102.78 343.08L98.75 340.15L90.68 334.29L86.65 331.36L82.61 328.43L78.58 325.5L74.55 322.57L70.51 319.64L66.48 316.71L62.45 313.78L58.42 310.86L54.38 307.93L50.35 305L46.32 302.07L42.28 299.14L38.25 296.21L34.22 293.28L30.18 290.35L26.15 287.42L22.12 284.49L18.08 281.56L14.05 278.63L13.28 278.05L12.52 277.46L11.78 276.86L11.06 276.25L10.35 275.62L9.67 274.98L9 274.32L8.35 273.66L7.72 272.98L7.11 272.29L6.53 271.58L5.96 270.87L5.42 270.14L4.9 269.4L4.4 268.65L3.93 267.89L3.48 267.12L3.05 266.33L2.65 265.54L2.28 264.73L1.93 263.92L1.61 263.09L1.32 262.26L1.05 261.41L0.81 260.55L0.61 259.69L0.43 258.81L0.28 257.93L0.16 257.03L0.07 256.13L0.02 255.22L0 254.3L0.01 253.37L0.05 252.43L0.13 251.48L0.24 250.53L0.38 249.57L0.56 248.6L0.78 247.62L1.03 246.63L1.3 245.73L1.6 244.84L1.92 243.96L2.27 243.1L2.65 242.25L3.06 241.42L3.5 240.6L3.95 239.8L4.44 239.02L4.95 238.26L5.48 237.51L6.03 236.78L6.61 236.07L7.21 235.38L7.83 234.71L8.47 234.06L9.13 233.43L9.81 232.83L10.51 232.24L11.23 231.68L11.96 231.14L12.71 230.62L13.48 230.13L14.26 229.66L15.06 229.21L15.87 228.8L16.69 228.4L17.53 228.03L18.38 227.69L19.24 227.38L20.11 227.09L21 226.84L21.89 226.61L22.79 226.41L23.7 226.23L24.62 226.09L25.54 225.98L26.48 225.9L27.41 225.86L28.36 225.84L230.58 225.84L232.14 221.06L233.69 216.29L235.25 211.51L236.8 206.73L238.35 201.95L239.91 197.18L241.46 192.4L243.01 187.62L244.57 182.84L246.12 178.07L247.67 173.29L249.22 168.51L250.78 163.73L252.33 158.96L253.88 154.18L255.43 149.4L256.99 144.62L258.54 139.85L260.09 135.07L261.64 130.29L263.2 125.51L264.75 120.73L266.3 115.96L267.85 111.18L269.4 106.4L270.96 101.62L272.51 96.84L274.06 92.07L275.61 87.29L277.17 82.51L278.72 77.73L280.27 72.95L281.82 68.18L283.38 63.4L284.93 58.62L286.48 53.84L288.03 49.06L289.59 44.29L291.14 39.51L292.69 34.73L292.7 34.72L292.7 34.71L292.7 34.7L292.71 34.69L292.71 34.68L292.71 34.67L292.72 34.67L292.72 34.65L292.73 34.63L292.74 34.62L292.75 34.6L292.75 34.59L292.76 34.57L292.77 34.55L292.77 34.54L292.77 34.54L292.78 34.53L292.78 34.52L292.78 34.51L292.79 34.5L292.79 34.49L293 33.85L293.22 33.21L293.46 32.58L293.71 31.96L293.97 31.34L294.25 30.73L294.55 30.12L294.85 29.53L295.18 28.93L295.51 28.35L295.86 27.77L296.22 27.2L296.6 26.64L296.98 26.09L297.38 25.55L297.79 25.01L298.21 24.49L298.65 23.97L299.1 23.47L299.55 22.97L300.02 22.49L300.5 22.01L300.99 21.55L301.49 21.1L302 20.65L302.52 20.23L303.05 19.81L303.59 19.4L304.14 19.01L304.7 18.63L305.26 18.27L305.84 17.91L306.42 17.57L307.01 17.25L307.61 16.94L308.22 16.64L308.84 16.36L309.46 16.09L310.09 15.84L310.72 15.61L310.74 15.6L310.77 15.59L310.78 15.59L310.8 15.58L310.83 15.56L310.87 15.55L310.91 15.53L310.94 15.52L310.95 15.51L310.97 15.5L310.99 15.5L311.01 15.49L311.03 15.48L311.04 15.47L311.05 15.47L311.07 15.46L311.08 15.46L311.09 15.46L311.11 15.45L311.12 15.45L311.13 15.44L311.14 15.44L311.15 15.44L311.18 15.43L311.22 15.41L311.25 15.4L311.28 15.39L311.32 15.38L311.35 15.36L311.38 15.35L311.42 15.34L311.45 15.32L311.48 15.31L311.51 15.29L311.55 15.28L311.58 15.27L311.61 15.25L311.64 15.24L311.68 15.22L311.74 15.19L311.78 15.18L311.81 15.17L311.84 15.15L311.87 15.14L311.91 15.12L311.94 15.11L311.97 15.1L312 15.08L312.04 15.07L312.07 15.05L312.1 15.04L312.14 15.03L312.17 15.02L312.2 15L312.24 14.99L312.27 14.98L312.31 14.97L312.34 14.96L312.37 14.94L312.41 14.93L312.44 14.92L312.48 14.91L312.54 14.9L312.61 14.88L312.68 14.86L312.74 14.85L312.81 14.83L312.87 14.82L312.94 14.8L313 14.79L313.07 14.78L313.14 14.77L313.2 14.75L313.27 14.74L313.33 14.73L313.4 14.72L313.46 14.71L313.53 14.7L313.59 14.69L313.66 14.68L313.72 14.67L313.79 14.66L313.85 14.65L313.92 14.65L313.98 14.64L314.05 14.63L314.11 14.62L314.18 14.61L314.24 14.6L314.31 14.59L314.37 14.58L314.44 14.58L314.5 14.57L314.57 14.56L314.63 14.55L314.7 14.54L314.76 14.53L314.83 14.52L314.89 14.51L314.96 14.5L315.02 14.49L315.09 14.48L315.13 14.47L315.18 14.46L315.23 14.45L315.27 14.44L315.32 14.43L315.36 14.42L315.41 14.41L315.5 14.4L315.6 14.38L315.64 14.37L315.69 14.36L315.74 14.35L315.78 14.35L315.83 14.34L315.88 14.33L315.92 14.32L315.97 14.31L316.01 14.3L316.06 14.3L316.11 14.29L316.15 14.28L316.2 14.27L316.25 14.26L316.29 14.26L316.34 14.25L316.39 14.24L316.43 14.23L316.48 14.23L316.53 14.22L316.58 14.21L316.62 14.21L316.67 14.2L316.72 14.19L316.76 14.19L316.81 14.18L316.86 14.17L316.91 14.17L316.95 14.16L317.04 14.15L317.13 14.15L317.21 14.14L317.3 14.13L317.38 14.12L317.47 14.11L317.56 14.11L317.64 14.1L317.73 14.09L317.81 14.09L317.9 14.08L317.98 14.08L318.07 14.07L318.15 14.07L318.24 14.06L318.33 14.06L318.41 14.06L318.5 14.05L318.58 14.05L318.67 14.05L318.75 14.04L318.84 14.04L318.92 14.04L319.01 14.04L319.09 14.04L319.18 14.04L319.26 14.03L319.35 14.03L319.43 14.03L319.52 14.03L319.6 14.03L319.69 14.03L319.77 14.03L319.86 14.03ZM317.91 140.21L316.87 143.41L315.83 146.6L314.79 149.8L313.75 153L312.71 156.2L311.67 159.39L310.64 162.59L309.6 165.79L308.56 168.98L307.52 172.18L306.48 175.38L305.44 178.58L304.4 181.77L303.36 184.97L302.32 188.17L301.29 191.37L300.25 194.56L298.17 200.96L297.13 204.16L296.09 207.35L295.05 210.55L294.01 213.75L292.97 216.94L291.94 220.14L290.9 223.34L289.86 226.54L288.82 229.73L287.78 232.93L286.74 236.13L285.7 239.33L284.66 242.52L283.62 245.72L282.59 248.92L281.55 252.11L280.51 255.31L279.47 258.51L278.43 261.7L278.12 262.6L277.79 263.49L277.44 264.36L277.06 265.22L276.66 266.06L276.24 266.89L275.79 267.7L275.33 268.5L274.84 269.28L274.33 270.04L273.81 270.79L273.26 271.52L272.69 272.22L272.1 272.91L271.49 273.58L270.87 274.23L270.22 274.86L269.56 275.47L268.88 276.06L268.18 276.62L267.47 277.17L266.74 277.68L265.99 278.18L265.23 278.65L264.45 279.1L263.65 279.52L262.84 279.91L262.02 280.28L261.18 280.63L260.33 280.94L259.46 281.23L258.58 281.49L257.69 281.72L256.78 281.92L255.87 282.1L254.94 282.24L254 282.35L253.04 282.43L252.08 282.48L251.11 282.49L115.28 282.49L117.97 284.45L120.66 286.4L123.35 288.36L126.04 290.31L128.73 292.27L131.42 294.22L134.11 296.18L136.8 298.13L139.49 300.08L142.18 302.04L144.87 303.99L147.56 305.95L150.25 307.9L152.94 309.85L155.63 311.81L158.32 313.76L161.01 315.72L163.7 317.67L166.39 319.63L169.08 321.58L171.77 323.53L174.46 325.49L177.15 327.44L179.84 329.4L182.53 331.35L185.22 333.3L187.91 335.26L190.6 337.21L193.29 339.17L195.98 341.12L198.67 343.07L201.36 345.03L204.05 346.98L206.74 348.94L209.43 350.89L212.12 352.85L214.81 354.8L217.5 356.75L220.19 358.71L222.88 360.66L223.63 361.22L224.36 361.79L225.08 362.38L225.79 362.98L226.49 363.6L227.17 364.23L227.84 364.88L228.49 365.55L229.12 366.23L229.73 366.92L230.33 367.63L230.91 368.35L231.46 369.08L232 369.83L232.51 370.58L233 371.35L233.47 372.14L233.91 372.93L234.33 373.74L234.72 374.55L235.09 375.38L235.42 376.21L235.73 377.06L236.01 377.92L236.26 378.78L236.48 379.66L236.67 380.54L236.83 381.43L236.95 382.33L237.04 383.23L237.1 384.15L237.11 385.07L237.1 386L237.04 386.93L236.95 387.87L236.82 388.81L236.65 389.77L236.44 390.72L236.19 391.68L235.9 392.65L235.79 392.98L235.68 393.31L235.57 393.64L235.46 393.98L235.35 394.31L235.25 394.64L235.14 394.97L235.03 395.31L234.92 395.64L234.81 395.97L234.71 396.3L234.6 396.64L234.49 396.97L234.38 397.3L234.28 397.63L234.17 397.96L234.06 398.3L233.95 398.63L233.84 398.96L233.74 399.29L233.63 399.63L233.52 399.96L233.41 400.29L233.3 400.62L233.2 400.95L233.09 401.29L232.98 401.62L232.87 401.95L232.77 402.28L232.66 402.61L232.55 402.95L232.44 403.28L232.33 403.61L232.23 403.94L232.12 404.27L232.01 404.6L231.9 404.94L231.79 405.27L231.68 405.6L231.58 405.93L230.62 408.86L229.67 411.79L228.72 414.72L227.77 417.65L226.82 420.57L225.87 423.5L224.91 426.43L223.96 429.36L223.01 432.29L222.06 435.22L221.11 438.15L220.15 441.08L219.2 444L218.25 446.93L217.3 449.86L216.35 452.79L215.4 455.72L214.44 458.65L213.49 461.58L212.54 464.51L211.59 467.44L210.64 470.36L209.68 473.29L208.73 476.22L207.78 479.15L206.83 482.08L205.88 485.01L204.93 487.94L203.97 490.87L203.02 493.8L202.07 496.73L201.12 499.66L200.17 502.59L199.21 505.52L198.26 508.44L197.31 511.37L196.36 514.3L195.41 517.23L194.46 520.16L193.5 523.09L196.31 521.06L199.11 519.02L201.92 516.98L204.72 514.94L207.53 512.91L210.33 510.87L213.14 508.83L215.94 506.79L218.74 504.76L221.55 502.72L224.35 500.68L227.16 498.64L229.96 496.61L232.77 494.57L235.57 492.53L238.37 490.49L241.18 488.46L243.98 486.42L246.79 484.38L249.59 482.34L252.4 480.3L255.2 478.27L258.01 476.23L260.81 474.19L263.61 472.15L266.42 470.12L269.22 468.08L272.03 466.04L274.83 464L277.64 461.96L280.44 459.93L283.25 457.89L286.05 455.85L288.85 453.81L291.66 451.77L294.46 449.73L297.27 447.7L300.07 445.66L302.88 443.62L305.68 441.58L306.25 441.19L306.84 440.82L307.45 440.46L308.08 440.13L308.73 439.82L309.4 439.53L310.09 439.26L310.79 439L311.51 438.77L312.24 438.56L312.98 438.37L313.73 438.2L314.49 438.05L315.27 437.92L316.04 437.81L316.83 437.72L317.61 437.65L318.41 437.6L319.2 437.57L320 437.55L320.79 437.57L321.59 437.6L322.38 437.65L323.17 437.72L323.95 437.81L324.73 437.92L325.5 438.05L326.26 438.2L327.01 438.37L327.75 438.56L328.48 438.77L329.19 439L329.89 439.26L330.58 439.53L331.25 439.82L331.9 440.13L332.53 440.46L333.14 440.82L333.73 441.19L334.29 441.58L334.57 441.79L334.86 441.99L335.14 442.2L335.42 442.4L335.71 442.61L335.99 442.81L336.27 443.02L336.56 443.22L336.84 443.43L337.12 443.63L337.41 443.84L337.69 444.04L337.97 444.25L338.25 444.45L338.54 444.66L338.82 444.86L339.1 445.07L339.38 445.27L339.67 445.48L339.95 445.68L340.23 445.89L340.51 446.09L340.79 446.3L341.08 446.5L341.36 446.71L341.64 446.91L341.92 447.12L342.21 447.32L342.49 447.53L342.77 447.73L343.05 447.94L343.33 448.14L343.62 448.35L343.9 448.55L344.18 448.76L344.46 448.96L344.75 449.17L345.03 449.37L345.31 449.58L345.59 449.78L348.11 451.61L350.64 453.45L353.16 455.28L355.68 457.11L358.2 458.94L360.72 460.78L363.24 462.61L365.76 464.44L368.28 466.27L370.81 468.1L373.33 469.94L375.85 471.77L378.37 473.6L380.89 475.43L383.42 477.26L385.94 479.1L388.46 480.93L390.98 482.76L393.5 484.59L396.03 486.42L398.55 488.26L401.07 490.09L403.59 491.92L406.11 493.75L408.64 495.58L411.16 497.41L413.68 499.25L416.2 501.08L418.72 502.91L421.25 504.74L423.77 506.57L426.29 508.41L428.81 510.24L431.34 512.07L433.86 513.9L436.38 515.74L438.9 517.57L441.42 519.4L443.95 521.23L446.47 523.06L445.41 519.8L444.35 516.54L443.29 513.28L442.23 510.02L441.17 506.76L440.11 503.5L439.05 500.24L437.99 496.98L436.93 493.71L435.87 490.45L434.81 487.19L433.75 483.93L432.69 480.67L431.63 477.41L430.57 474.15L429.51 470.88L428.45 467.62L427.39 464.36L426.33 461.1L425.27 457.84L424.21 454.58L423.15 451.32L422.09 448.05L421.03 444.79L419.97 441.53L418.91 438.27L417.85 435.01L416.79 431.75L415.73 428.48L414.67 425.22L413.61 421.96L412.55 418.7L411.49 415.44L410.43 412.18L409.37 408.91L408.31 405.65L407.25 402.39L406.19 399.13L405.13 395.87L404.08 392.6L403.78 391.64L403.53 390.68L403.32 389.72L403.15 388.77L403.02 387.83L402.92 386.89L402.87 385.96L402.85 385.03L402.87 384.11L402.92 383.2L403.01 382.29L403.14 381.39L403.29 380.5L403.48 379.62L403.7 378.75L403.95 377.88L404.23 377.03L404.54 376.18L404.88 375.35L405.25 374.52L405.64 373.7L406.06 372.9L406.5 372.11L406.97 371.32L407.46 370.55L407.97 369.8L408.51 369.05L409.06 368.32L409.64 367.6L410.24 366.89L410.85 366.2L411.48 365.52L412.13 364.85L412.8 364.2L413.48 363.57L414.18 362.94L414.89 362.34L415.61 361.75L416.35 361.18L417.09 360.62L417.38 360.42L417.66 360.21L417.94 360.01L418.23 359.8L418.51 359.6L418.79 359.39L419.08 359.19L419.36 358.98L419.64 358.77L419.92 358.57L420.21 358.36L420.49 358.16L420.77 357.95L421.05 357.75L421.34 357.54L421.62 357.34L421.9 357.13L422.19 356.93L422.47 356.72L423.03 356.31L423.32 356.1L423.6 355.9L423.88 355.69L424.16 355.49L424.45 355.28L424.73 355.08L425.01 354.87L425.29 354.66L425.58 354.46L425.86 354.25L426.14 354.05L426.43 353.84L426.71 353.64L426.99 353.43L427.28 353.23L427.56 353.02L427.84 352.82L428.13 352.61L428.41 352.41L430.82 350.66L433.22 348.91L435.63 347.16L438.04 345.41L440.44 343.66L442.85 341.92L445.26 340.17L447.66 338.42L450.07 336.67L452.48 334.92L454.88 333.17L457.29 331.42L459.7 329.68L462.1 327.93L464.51 326.18L466.92 324.43L469.32 322.68L471.73 320.93L474.14 319.18L478.95 315.69L481.36 313.94L483.76 312.19L486.17 310.44L488.58 308.69L490.98 306.95L493.39 305.2L495.8 303.45L498.2 301.7L500.61 299.95L503.02 298.2L505.42 296.45L507.83 294.71L510.24 292.96L512.64 291.21L515.05 289.46L517.46 287.71L519.87 285.96L522.27 284.21L524.68 282.47L388.85 282.47L387.88 282.45L386.91 282.4L385.96 282.32L385.02 282.21L384.09 282.07L383.17 281.9L382.27 281.69L381.38 281.46L380.5 281.2L379.63 280.91L378.78 280.6L377.94 280.26L377.11 279.89L376.3 279.49L375.51 279.07L374.73 278.62L373.96 278.15L373.21 277.66L372.48 277.14L371.77 276.6L371.07 276.03L370.39 275.44L369.73 274.84L369.08 274.21L368.46 273.56L367.85 272.89L367.26 272.2L366.69 271.49L366.15 270.76L365.62 270.01L365.11 269.25L364.62 268.47L364.16 267.67L363.71 266.86L363.29 266.03L362.89 265.19L362.52 264.33L362.16 263.46L361.83 262.57L361.53 261.67L361.42 261.34L361.31 261.01L361.2 260.68L361.09 260.34L360.98 260.01L360.87 259.68L360.77 259.35L360.66 259.02L360.55 258.68L360.44 258.35L360.33 258.02L360.22 257.69L360.12 257.36L360.01 257.02L359.9 256.69L359.79 256.36L359.69 256.03L359.58 255.7L359.47 255.36L359.36 255.03L359.26 254.7L359.15 254.37L359.04 254.04L358.93 253.7L358.83 253.37L358.72 253.04L358.61 252.71L358.5 252.38L358.39 252.04L358.29 251.71L358.18 251.38L358.07 251.05L357.96 250.71L357.86 250.38L357.75 250.05L357.64 249.72L357.53 249.39L357.42 249.05L357.32 248.72L357.21 248.39L356.28 245.52L355.34 242.66L354.41 239.8L353.48 236.93L352.55 234.07L351.62 231.21L350.69 228.34L349.76 225.48L348.83 222.61L347.89 219.75L346.96 216.89L346.03 214.02L345.1 211.16L344.17 208.29L343.24 205.43L342.31 202.57L341.38 199.7L340.45 196.84L339.52 193.97L338.59 191.11L337.66 188.24L336.73 185.38L335.79 182.52L334.86 179.65L333.93 176.79L333 173.92L332.07 171.06L331.14 168.19L330.21 165.33L329.28 162.47L328.35 159.6L327.42 156.74L326.49 153.87L325.56 151.01L324.63 148.14L323.7 145.28L322.77 142.41L321.84 139.55L320.92 136.68L319.99 133.82L318.95 137.01L317.91 140.21Z" id="c11xNgyOIF"></path></defs><g><g><g><use xlink:href="#c11xNgyOIF" opacity="1" fill="#f8e080" fill-opacity="1"></use><g><use xlink:href="#c11xNgyOIF" opacity="1" fill-opacity="0" stroke="#000000" stroke-width="1" stroke-opacity="0"></use></g></g></g></g></svg>